G04 Layer_Color=16711935*
%FSLAX44Y44*%
%MOMM*%
G71*
G01*
G75*
%ADD11C,0.2000*%
%ADD15C,0.5000*%
D11*
X564000Y0D02*
X565000Y1000D01*
D15*
X625000Y690000D02*
G03*
X635000Y680000I10000J0D01*
G01*
X625000Y720000D02*
G03*
X615000Y730000I-10000J0D01*
G01*
X210000Y200000D02*
G03*
X210000Y180000I0J-10000D01*
G01*
X360000D02*
G03*
X360000Y200000I0J10000D01*
G01*
X30000Y730000D02*
G03*
X0Y700000I0J-30000D01*
G01*
Y30000D02*
G03*
X30000Y0I30000J0D01*
G01*
X870000D02*
G03*
X900000Y30000I0J30000D01*
G01*
Y650000D02*
G03*
X870000Y680000I-30000J0D01*
G01*
X525000Y121000D02*
G03*
X525000Y141000I0J10000D01*
G01*
X375000D02*
G03*
X375000Y121000I0J-10000D01*
G01*
X635000Y680000D02*
X870000D01*
X625000Y690000D02*
Y720000D01*
X30000Y730000D02*
X615000D01*
X210000Y180000D02*
X360000D01*
X210000Y200000D02*
X360000D01*
X900000Y30000D02*
Y650000D01*
X30000Y0D02*
X870000D01*
X0Y30000D02*
Y700000D01*
X375000Y141000D02*
X525000D01*
X375000Y121000D02*
X525000D01*
M02*
