G04 Layer_Color=65535*
%FSLAX44Y44*%
%MOMM*%
G71*
G01*
G75*
%ADD11C,0.2000*%
G36*
X132935Y697384D02*
X134059D01*
Y697010D01*
X135183D01*
Y696635D01*
X135557D01*
Y696260D01*
X136307D01*
Y695886D01*
X136681D01*
Y695511D01*
X137056D01*
Y695136D01*
X137431D01*
Y694762D01*
X137806D01*
Y695136D01*
Y695511D01*
Y695886D01*
Y696260D01*
Y696635D01*
Y697010D01*
Y697384D01*
X142302D01*
Y697010D01*
Y696635D01*
Y696260D01*
Y695886D01*
Y695511D01*
Y695136D01*
Y694762D01*
Y694387D01*
Y694012D01*
Y693637D01*
Y693263D01*
Y692888D01*
Y692513D01*
Y692139D01*
Y691764D01*
Y691389D01*
Y691014D01*
Y690640D01*
Y690265D01*
Y689891D01*
Y689516D01*
Y689141D01*
Y688766D01*
Y688392D01*
Y688017D01*
Y687642D01*
Y687268D01*
Y686893D01*
Y686518D01*
Y686143D01*
Y685769D01*
Y685394D01*
Y685019D01*
Y684645D01*
Y684270D01*
Y683895D01*
Y683521D01*
Y683146D01*
Y682771D01*
Y682396D01*
Y682022D01*
Y681647D01*
Y681272D01*
Y680898D01*
Y680523D01*
Y680148D01*
Y679774D01*
Y679399D01*
Y679024D01*
Y678650D01*
Y678275D01*
X137806D01*
Y678650D01*
Y679024D01*
Y679399D01*
Y679774D01*
Y680148D01*
Y680523D01*
Y680898D01*
X137431D01*
Y680523D01*
X137056D01*
Y680148D01*
X136681D01*
Y679774D01*
X136307D01*
Y679399D01*
X135557D01*
Y679024D01*
X134808D01*
Y678650D01*
X134059D01*
Y678275D01*
X132935D01*
Y677900D01*
X128063D01*
Y678275D01*
X126939D01*
Y678650D01*
X125815D01*
Y679024D01*
X125066D01*
Y679399D01*
X124691D01*
Y679774D01*
X123942D01*
Y680148D01*
X123567D01*
Y680523D01*
X123192D01*
Y680898D01*
X122818D01*
Y681272D01*
X122443D01*
Y681647D01*
Y682022D01*
X122068D01*
Y682396D01*
X121694D01*
Y682771D01*
Y683146D01*
X121319D01*
Y683521D01*
Y683895D01*
X120944D01*
Y684270D01*
Y684645D01*
Y685019D01*
Y685394D01*
X120569D01*
Y685769D01*
Y686143D01*
Y686518D01*
Y686893D01*
Y687268D01*
Y687642D01*
Y688017D01*
Y688392D01*
Y688766D01*
Y689141D01*
Y689516D01*
Y689891D01*
Y690265D01*
X120944D01*
Y690640D01*
Y691014D01*
Y691389D01*
X121319D01*
Y691764D01*
Y692139D01*
Y692513D01*
X121694D01*
Y692888D01*
X122068D01*
Y693263D01*
Y693637D01*
X122443D01*
Y694012D01*
X122818D01*
Y694387D01*
X123192D01*
Y694762D01*
X123567D01*
Y695136D01*
X123942D01*
Y695511D01*
X124317D01*
Y695886D01*
X125066D01*
Y696260D01*
X125441D01*
Y696635D01*
X126190D01*
Y697010D01*
X126939D01*
Y697384D01*
X128438D01*
Y697759D01*
X132935D01*
Y697384D01*
D02*
G37*
G36*
X167781D02*
X169280D01*
Y697010D01*
X170030D01*
Y696635D01*
X170779D01*
Y696260D01*
X171528D01*
Y695886D01*
X171903D01*
Y695511D01*
X172278D01*
Y695136D01*
X172652D01*
Y694762D01*
X173402D01*
Y694387D01*
Y694012D01*
X173776D01*
Y693637D01*
X174151D01*
Y693263D01*
X174526D01*
Y692888D01*
Y692513D01*
X174901D01*
Y692139D01*
X175275D01*
Y691764D01*
Y691389D01*
Y691014D01*
X175650D01*
Y690640D01*
Y690265D01*
Y689891D01*
X176025D01*
Y689516D01*
Y689141D01*
Y688766D01*
Y688392D01*
Y688017D01*
Y687642D01*
Y687268D01*
Y686893D01*
Y686518D01*
Y686143D01*
X175650D01*
Y685769D01*
X159538D01*
Y685394D01*
X159913D01*
Y685019D01*
Y684645D01*
X160287D01*
Y684270D01*
Y683895D01*
X160662D01*
Y683521D01*
X161411D01*
Y683146D01*
X161786D01*
Y682771D01*
X162536D01*
Y682396D01*
X163660D01*
Y682022D01*
X167032D01*
Y682396D01*
X168156D01*
Y682771D01*
X168906D01*
Y683146D01*
X169655D01*
Y683521D01*
X174901D01*
Y683146D01*
Y682771D01*
X174526D01*
Y682396D01*
Y682022D01*
X174151D01*
Y681647D01*
X173776D01*
Y681272D01*
X173402D01*
Y680898D01*
X173027D01*
Y680523D01*
X172652D01*
Y680148D01*
X172278D01*
Y679774D01*
X171528D01*
Y679399D01*
X170779D01*
Y679024D01*
X170030D01*
Y678650D01*
X169280D01*
Y678275D01*
X167781D01*
Y677900D01*
X162536D01*
Y678275D01*
X161411D01*
Y678650D01*
X160287D01*
Y679024D01*
X159538D01*
Y679399D01*
X159163D01*
Y679774D01*
X158414D01*
Y680148D01*
X158039D01*
Y680523D01*
X157664D01*
Y680898D01*
X157290D01*
Y681272D01*
X156915D01*
Y681647D01*
X156540D01*
Y682022D01*
X156166D01*
Y682396D01*
Y682771D01*
X155791D01*
Y683146D01*
X155416D01*
Y683521D01*
Y683895D01*
X155042D01*
Y684270D01*
Y684645D01*
Y685019D01*
X154667D01*
Y685394D01*
Y685769D01*
Y686143D01*
Y686518D01*
Y686893D01*
X154292D01*
Y687268D01*
Y687642D01*
Y688017D01*
Y688392D01*
Y688766D01*
X154667D01*
Y689141D01*
Y689516D01*
Y689891D01*
Y690265D01*
Y690640D01*
X155042D01*
Y691014D01*
Y691389D01*
X155416D01*
Y691764D01*
Y692139D01*
X155791D01*
Y692513D01*
Y692888D01*
X156166D01*
Y693263D01*
X156540D01*
Y693637D01*
Y694012D01*
X156915D01*
Y694387D01*
X157290D01*
Y694762D01*
X157664D01*
Y695136D01*
X158414D01*
Y695511D01*
X158789D01*
Y695886D01*
X159163D01*
Y696260D01*
X159913D01*
Y696635D01*
X160662D01*
Y697010D01*
X161411D01*
Y697384D01*
X162910D01*
Y697759D01*
X167781D01*
Y697384D01*
D02*
G37*
G36*
X150920Y703380D02*
Y703005D01*
Y702630D01*
Y702255D01*
Y701881D01*
Y701506D01*
Y701131D01*
Y700757D01*
Y700382D01*
Y700007D01*
Y699633D01*
Y699258D01*
Y698883D01*
Y698509D01*
Y698134D01*
Y697759D01*
Y697384D01*
Y697010D01*
Y696635D01*
Y696260D01*
Y695886D01*
Y695511D01*
Y695136D01*
Y694762D01*
Y694387D01*
Y694012D01*
Y693637D01*
Y693263D01*
Y692888D01*
Y692513D01*
Y692139D01*
Y691764D01*
Y691389D01*
Y691014D01*
Y690640D01*
Y690265D01*
Y689891D01*
Y689516D01*
Y689141D01*
Y688766D01*
Y688392D01*
Y688017D01*
Y687642D01*
Y687268D01*
Y686893D01*
Y686518D01*
Y686143D01*
Y685769D01*
Y685394D01*
Y685019D01*
Y684645D01*
Y684270D01*
Y683895D01*
Y683521D01*
Y683146D01*
Y682771D01*
Y682396D01*
Y682022D01*
Y681647D01*
Y681272D01*
Y680898D01*
Y680523D01*
Y680148D01*
Y679774D01*
Y679399D01*
Y679024D01*
Y678650D01*
Y678275D01*
X146424D01*
Y678650D01*
Y679024D01*
Y679399D01*
Y679774D01*
Y680148D01*
Y680523D01*
Y680898D01*
Y681272D01*
Y681647D01*
Y682022D01*
Y682396D01*
Y682771D01*
Y683146D01*
Y683521D01*
Y683895D01*
Y684270D01*
Y684645D01*
Y685019D01*
Y685394D01*
Y685769D01*
Y686143D01*
Y686518D01*
Y686893D01*
Y687268D01*
Y687642D01*
Y688017D01*
Y688392D01*
Y688766D01*
Y689141D01*
Y689516D01*
Y689891D01*
Y690265D01*
Y690640D01*
Y691014D01*
Y691389D01*
Y691764D01*
Y692139D01*
Y692513D01*
Y692888D01*
Y693263D01*
Y693637D01*
Y694012D01*
Y694387D01*
Y694762D01*
Y695136D01*
Y695511D01*
Y695886D01*
Y696260D01*
Y696635D01*
Y697010D01*
Y697384D01*
Y697759D01*
Y698134D01*
Y698509D01*
Y698883D01*
Y699258D01*
Y699633D01*
Y700007D01*
Y700382D01*
Y700757D01*
Y701131D01*
Y701506D01*
Y701881D01*
Y702255D01*
Y702630D01*
Y703005D01*
Y703380D01*
Y703754D01*
X150920D01*
Y703380D01*
D02*
G37*
G36*
X244219D02*
Y703005D01*
Y702630D01*
Y702255D01*
Y701881D01*
Y701506D01*
Y701131D01*
Y700757D01*
Y700382D01*
Y700007D01*
Y699633D01*
Y699258D01*
Y698883D01*
Y698509D01*
Y698134D01*
X236726D01*
Y697759D01*
Y697384D01*
Y697010D01*
Y696635D01*
Y696260D01*
Y695886D01*
Y695511D01*
Y695136D01*
Y694762D01*
Y694387D01*
Y694012D01*
Y693637D01*
X243845D01*
Y693263D01*
Y692888D01*
Y692513D01*
Y692139D01*
Y691764D01*
Y691389D01*
Y691014D01*
Y690640D01*
Y690265D01*
Y689891D01*
Y689516D01*
Y689141D01*
Y688766D01*
Y688392D01*
Y688017D01*
X236726D01*
Y687642D01*
Y687268D01*
Y686893D01*
Y686518D01*
Y686143D01*
Y685769D01*
Y685394D01*
Y685019D01*
Y684645D01*
Y684270D01*
Y683895D01*
Y683521D01*
Y683146D01*
Y682771D01*
Y682396D01*
Y682022D01*
Y681647D01*
Y681272D01*
Y680898D01*
Y680523D01*
Y680148D01*
Y679774D01*
Y679399D01*
Y679024D01*
Y678650D01*
Y678275D01*
X230356D01*
Y678650D01*
Y679024D01*
Y679399D01*
Y679774D01*
Y680148D01*
Y680523D01*
Y680898D01*
Y681272D01*
Y681647D01*
Y682022D01*
Y682396D01*
Y682771D01*
Y683146D01*
Y683521D01*
Y683895D01*
Y684270D01*
Y684645D01*
Y685019D01*
Y685394D01*
Y685769D01*
Y686143D01*
Y686518D01*
Y686893D01*
Y687268D01*
Y687642D01*
Y688017D01*
Y688392D01*
Y688766D01*
Y689141D01*
Y689516D01*
Y689891D01*
Y690265D01*
Y690640D01*
Y691014D01*
Y691389D01*
Y691764D01*
Y692139D01*
Y692513D01*
Y692888D01*
Y693263D01*
Y693637D01*
Y694012D01*
Y694387D01*
Y694762D01*
Y695136D01*
Y695511D01*
Y695886D01*
Y696260D01*
Y696635D01*
Y697010D01*
Y697384D01*
Y697759D01*
Y698134D01*
Y698509D01*
Y698883D01*
Y699258D01*
Y699633D01*
Y700007D01*
Y700382D01*
Y700757D01*
Y701131D01*
Y701506D01*
Y701881D01*
Y702255D01*
Y702630D01*
Y703005D01*
Y703380D01*
Y703754D01*
X244219D01*
Y703380D01*
D02*
G37*
G36*
X213869Y697384D02*
X214993D01*
Y697010D01*
X215742D01*
Y696635D01*
X216492D01*
Y696260D01*
X216867D01*
Y695886D01*
X217616D01*
Y695511D01*
X217991D01*
Y695136D01*
X218365D01*
Y694762D01*
X218740D01*
Y695136D01*
Y695511D01*
Y695886D01*
Y696260D01*
Y696635D01*
Y697010D01*
Y697384D01*
X223237D01*
Y697010D01*
Y696635D01*
Y696260D01*
Y695886D01*
Y695511D01*
Y695136D01*
Y694762D01*
Y694387D01*
Y694012D01*
Y693637D01*
Y693263D01*
Y692888D01*
Y692513D01*
Y692139D01*
Y691764D01*
Y691389D01*
Y691014D01*
Y690640D01*
Y690265D01*
Y689891D01*
Y689516D01*
Y689141D01*
Y688766D01*
Y688392D01*
Y688017D01*
Y687642D01*
Y687268D01*
Y686893D01*
Y686518D01*
Y686143D01*
Y685769D01*
Y685394D01*
Y685019D01*
Y684645D01*
Y684270D01*
Y683895D01*
Y683521D01*
Y683146D01*
Y682771D01*
Y682396D01*
Y682022D01*
Y681647D01*
Y681272D01*
Y680898D01*
Y680523D01*
Y680148D01*
Y679774D01*
Y679399D01*
Y679024D01*
Y678650D01*
Y678275D01*
X218740D01*
Y678650D01*
Y679024D01*
Y679399D01*
Y679774D01*
Y680148D01*
Y680523D01*
Y680898D01*
X218365D01*
Y680523D01*
X217991D01*
Y680148D01*
X217616D01*
Y679774D01*
X217241D01*
Y679399D01*
X216492D01*
Y679024D01*
X215742D01*
Y678650D01*
X214993D01*
Y678275D01*
X213869D01*
Y677900D01*
X208998D01*
Y678275D01*
X207499D01*
Y678650D01*
X206750D01*
Y679024D01*
X206000D01*
Y679399D01*
X205626D01*
Y679774D01*
X204876D01*
Y680148D01*
X204502D01*
Y680523D01*
X204127D01*
Y680898D01*
X203752D01*
Y681272D01*
X203377D01*
Y681647D01*
X203003D01*
Y682022D01*
Y682396D01*
X202628D01*
Y682771D01*
Y683146D01*
X202253D01*
Y683521D01*
Y683895D01*
X201879D01*
Y684270D01*
Y684645D01*
Y685019D01*
X201504D01*
Y685394D01*
Y685769D01*
Y686143D01*
Y686518D01*
Y686893D01*
X201129D01*
Y687268D01*
Y687642D01*
Y688017D01*
Y688392D01*
Y688766D01*
X201504D01*
Y689141D01*
Y689516D01*
Y689891D01*
Y690265D01*
Y690640D01*
X201879D01*
Y691014D01*
Y691389D01*
Y691764D01*
X202253D01*
Y692139D01*
Y692513D01*
X202628D01*
Y692888D01*
Y693263D01*
X203003D01*
Y693637D01*
X203377D01*
Y694012D01*
X203752D01*
Y694387D01*
X204127D01*
Y694762D01*
X204502D01*
Y695136D01*
X204876D01*
Y695511D01*
X205251D01*
Y695886D01*
X205626D01*
Y696260D01*
X206375D01*
Y696635D01*
X207125D01*
Y697010D01*
X207874D01*
Y697384D01*
X209373D01*
Y697759D01*
X213869D01*
Y697384D01*
D02*
G37*
G36*
X78604Y701881D02*
Y701506D01*
Y701131D01*
Y700757D01*
Y700382D01*
Y700007D01*
Y699633D01*
Y699258D01*
Y698883D01*
Y698509D01*
Y698134D01*
Y697759D01*
Y697384D01*
Y697010D01*
Y696635D01*
Y696260D01*
Y695886D01*
Y695511D01*
Y695136D01*
Y694762D01*
Y694387D01*
Y694012D01*
Y693637D01*
Y693263D01*
Y692888D01*
Y692513D01*
Y692139D01*
Y691764D01*
Y691389D01*
Y691014D01*
Y690640D01*
Y690265D01*
Y689891D01*
Y689516D01*
Y689141D01*
Y688766D01*
Y688392D01*
Y688017D01*
Y687642D01*
Y687268D01*
Y686893D01*
Y686518D01*
Y686143D01*
Y685769D01*
Y685394D01*
Y685019D01*
Y684645D01*
Y684270D01*
Y683895D01*
Y683521D01*
Y683146D01*
Y682771D01*
Y682396D01*
Y682022D01*
Y681647D01*
Y681272D01*
Y680898D01*
Y680523D01*
Y680148D01*
Y679774D01*
Y679399D01*
Y679024D01*
X78229D01*
Y678650D01*
Y678275D01*
Y677900D01*
X77854D01*
Y677525D01*
X77479D01*
Y677151D01*
Y676776D01*
X77105D01*
Y676401D01*
X76730D01*
Y676027D01*
X76355D01*
Y675652D01*
X75981D01*
Y675277D01*
X75606D01*
Y674903D01*
X74857D01*
Y674528D01*
X74107D01*
Y674153D01*
X73732D01*
Y673779D01*
X72983D01*
Y673404D01*
X72234D01*
Y673029D01*
X71484D01*
Y672654D01*
X71109D01*
Y672280D01*
X70360D01*
Y671905D01*
X69611D01*
Y671530D01*
X69236D01*
Y671156D01*
X68487D01*
Y670781D01*
X67737D01*
Y670406D01*
X66988D01*
Y670032D01*
X66613D01*
Y669657D01*
X65864D01*
Y669282D01*
X65114D01*
Y668907D01*
X64365D01*
Y668533D01*
X63990D01*
Y668158D01*
X63241D01*
Y667783D01*
X62491D01*
Y667409D01*
X61742D01*
Y667034D01*
X61367D01*
Y666659D01*
X60618D01*
Y666284D01*
X59869D01*
Y665910D01*
X59119D01*
Y665535D01*
X58745D01*
Y665161D01*
X57995D01*
Y664786D01*
X56871D01*
Y664411D01*
X56122D01*
Y664786D01*
Y665161D01*
Y665535D01*
Y665910D01*
Y666284D01*
Y666659D01*
Y667034D01*
Y667409D01*
Y667783D01*
Y668158D01*
Y668533D01*
Y668907D01*
X57246D01*
Y669282D01*
X57995D01*
Y669657D01*
X58745D01*
Y670032D01*
X59494D01*
Y670406D01*
X60243D01*
Y670781D01*
X60618D01*
Y671156D01*
X61367D01*
Y671530D01*
X62117D01*
Y671905D01*
X62866D01*
Y672280D01*
X63241D01*
Y672654D01*
X63990D01*
Y673029D01*
X64740D01*
Y673404D01*
X65489D01*
Y673779D01*
X65864D01*
Y674153D01*
X66613D01*
Y674528D01*
X67363D01*
Y674903D01*
X68112D01*
Y675277D01*
X68487D01*
Y675652D01*
X69236D01*
Y676027D01*
X69985D01*
Y676401D01*
X70360D01*
Y676776D01*
X71109D01*
Y677151D01*
X71859D01*
Y677525D01*
X72234D01*
Y677900D01*
X72608D01*
Y678275D01*
X72983D01*
Y678650D01*
X73358D01*
Y679024D01*
X73732D01*
Y679399D01*
Y679774D01*
X74107D01*
Y680148D01*
Y680523D01*
X74482D01*
Y680898D01*
Y681272D01*
Y681647D01*
X74857D01*
Y682022D01*
Y682396D01*
Y682771D01*
Y683146D01*
Y683521D01*
Y683895D01*
Y684270D01*
Y684645D01*
Y685019D01*
Y685394D01*
Y685769D01*
Y686143D01*
Y686518D01*
Y686893D01*
Y687268D01*
Y687642D01*
Y688017D01*
Y688392D01*
Y688766D01*
Y689141D01*
Y689516D01*
Y689891D01*
Y690265D01*
Y690640D01*
Y691014D01*
Y691389D01*
Y691764D01*
Y692139D01*
Y692513D01*
Y692888D01*
Y693263D01*
Y693637D01*
Y694012D01*
Y694387D01*
Y694762D01*
Y695136D01*
Y695511D01*
Y695886D01*
Y696260D01*
Y696635D01*
Y697010D01*
Y697384D01*
Y697759D01*
Y698134D01*
Y698509D01*
Y698883D01*
Y699258D01*
X74482D01*
Y699633D01*
Y700007D01*
Y700382D01*
X74857D01*
Y700757D01*
X75606D01*
Y701131D01*
X76355D01*
Y701506D01*
X77105D01*
Y701881D01*
X77479D01*
Y702255D01*
X78604D01*
Y701881D01*
D02*
G37*
G36*
X31766D02*
X32516D01*
Y701506D01*
X33265D01*
Y701131D01*
X34015D01*
Y700757D01*
X34389D01*
Y700382D01*
X35139D01*
Y700007D01*
Y699633D01*
X34764D01*
Y699258D01*
Y698883D01*
Y698509D01*
Y698134D01*
Y697759D01*
Y697384D01*
Y697010D01*
Y696635D01*
Y696260D01*
Y695886D01*
Y695511D01*
Y695136D01*
Y694762D01*
Y694387D01*
Y694012D01*
Y693637D01*
Y693263D01*
Y692888D01*
Y692513D01*
Y692139D01*
Y691764D01*
Y691389D01*
Y691014D01*
Y690640D01*
Y690265D01*
Y689891D01*
Y689516D01*
Y689141D01*
Y688766D01*
Y688392D01*
Y688017D01*
Y687642D01*
Y687268D01*
Y686893D01*
Y686518D01*
Y686143D01*
Y685769D01*
Y685394D01*
Y685019D01*
Y684645D01*
Y684270D01*
Y683895D01*
Y683521D01*
Y683146D01*
Y682771D01*
Y682396D01*
Y682022D01*
Y681647D01*
X35139D01*
Y681272D01*
Y680898D01*
Y680523D01*
X35513D01*
Y680148D01*
Y679774D01*
X35888D01*
Y679399D01*
Y679024D01*
X36263D01*
Y678650D01*
X36637D01*
Y678275D01*
X37012D01*
Y677900D01*
X37387D01*
Y677525D01*
X37761D01*
Y677151D01*
X38511D01*
Y676776D01*
X38886D01*
Y676401D01*
X39635D01*
Y676027D01*
X40384D01*
Y675652D01*
X41134D01*
Y675277D01*
X41508D01*
Y674903D01*
X42258D01*
Y674528D01*
X43007D01*
Y674153D01*
X43382D01*
Y673779D01*
X44131D01*
Y673404D01*
X44881D01*
Y673029D01*
X45630D01*
Y672654D01*
X46005D01*
Y672280D01*
X46754D01*
Y671905D01*
X47504D01*
Y671530D01*
X48253D01*
Y671156D01*
X48628D01*
Y670781D01*
X49377D01*
Y670406D01*
X50127D01*
Y670032D01*
X50876D01*
Y669657D01*
X51251D01*
Y669282D01*
X52375D01*
Y668907D01*
X53499D01*
Y668533D01*
Y668158D01*
Y667783D01*
Y667409D01*
Y667034D01*
Y666659D01*
Y666284D01*
Y665910D01*
Y665535D01*
Y665161D01*
Y664786D01*
Y664411D01*
X52375D01*
Y664786D01*
X51625D01*
Y665161D01*
X50876D01*
Y665535D01*
X50127D01*
Y665910D01*
X49752D01*
Y666284D01*
X49002D01*
Y666659D01*
X48253D01*
Y667034D01*
X47504D01*
Y667409D01*
X47129D01*
Y667783D01*
X46380D01*
Y668158D01*
X45630D01*
Y668533D01*
X44881D01*
Y668907D01*
X44506D01*
Y669282D01*
X43757D01*
Y669657D01*
X43007D01*
Y670032D01*
X42633D01*
Y670406D01*
X41883D01*
Y670781D01*
X41134D01*
Y671156D01*
X40384D01*
Y671530D01*
X40010D01*
Y671905D01*
X39260D01*
Y672280D01*
X38511D01*
Y672654D01*
X37761D01*
Y673029D01*
X37387D01*
Y673404D01*
X36637D01*
Y673779D01*
X35888D01*
Y674153D01*
X35139D01*
Y674528D01*
X34764D01*
Y674903D01*
X34015D01*
Y675277D01*
X33640D01*
Y675652D01*
X33265D01*
Y676027D01*
X32891D01*
Y676401D01*
X32516D01*
Y676776D01*
X32141D01*
Y677151D01*
X31766D01*
Y677525D01*
Y677900D01*
X31392D01*
Y678275D01*
Y678650D01*
Y679024D01*
X31017D01*
Y679399D01*
Y679774D01*
Y680148D01*
Y680523D01*
Y680898D01*
X30642D01*
Y681272D01*
Y681647D01*
Y682022D01*
Y682396D01*
Y682771D01*
Y683146D01*
Y683521D01*
Y683895D01*
Y684270D01*
Y684645D01*
Y685019D01*
Y685394D01*
Y685769D01*
Y686143D01*
Y686518D01*
Y686893D01*
Y687268D01*
Y687642D01*
Y688017D01*
Y688392D01*
Y688766D01*
Y689141D01*
Y689516D01*
Y689891D01*
Y690265D01*
Y690640D01*
Y691014D01*
Y691389D01*
Y691764D01*
Y692139D01*
Y692513D01*
Y692888D01*
Y693263D01*
Y693637D01*
Y694012D01*
Y694387D01*
Y694762D01*
Y695136D01*
Y695511D01*
Y695886D01*
Y696260D01*
Y696635D01*
Y697010D01*
Y697384D01*
Y697759D01*
Y698134D01*
Y698509D01*
Y698883D01*
Y699258D01*
Y699633D01*
Y700007D01*
Y700382D01*
X31017D01*
Y700757D01*
Y701131D01*
Y701506D01*
Y701881D01*
Y702255D01*
X31766D01*
Y701881D01*
D02*
G37*
G36*
X37761Y698509D02*
X38511D01*
Y698134D01*
X38886D01*
Y697759D01*
X39635D01*
Y697384D01*
X40384D01*
Y697010D01*
X41134D01*
Y696635D01*
X41508D01*
Y696260D01*
X42258D01*
Y695886D01*
X43007D01*
Y695511D01*
X43757D01*
Y695136D01*
X44131D01*
Y694762D01*
X44881D01*
Y694387D01*
X45630D01*
Y694012D01*
X46005D01*
Y693637D01*
X46754D01*
Y693263D01*
X47504D01*
Y692888D01*
X48253D01*
Y692513D01*
X48628D01*
Y692139D01*
X49377D01*
Y691764D01*
X50127D01*
Y691389D01*
X50501D01*
Y691014D01*
X50876D01*
Y690640D01*
X51251D01*
Y690265D01*
X51625D01*
Y689891D01*
X52000D01*
Y689516D01*
X52375D01*
Y689141D01*
X52749D01*
Y688766D01*
Y688392D01*
X53124D01*
Y688017D01*
Y687642D01*
Y687268D01*
X53499D01*
Y686893D01*
Y686518D01*
Y686143D01*
Y685769D01*
Y685394D01*
Y685019D01*
Y684645D01*
Y684270D01*
Y683895D01*
Y683521D01*
Y683146D01*
Y682771D01*
Y682396D01*
Y682022D01*
Y681647D01*
Y681272D01*
Y680898D01*
Y680523D01*
Y680148D01*
Y679774D01*
Y679399D01*
Y679024D01*
Y678650D01*
Y678275D01*
Y677900D01*
Y677525D01*
Y677151D01*
Y676776D01*
Y676401D01*
Y676027D01*
Y675652D01*
Y675277D01*
Y674903D01*
Y674528D01*
Y674153D01*
Y673779D01*
Y673404D01*
Y673029D01*
Y672654D01*
Y672280D01*
Y671905D01*
Y671530D01*
X52749D01*
Y671905D01*
X52000D01*
Y672280D01*
X51251D01*
Y672654D01*
X50501D01*
Y673029D01*
X50127D01*
Y673404D01*
X49377D01*
Y673779D01*
X48628D01*
Y674153D01*
X47878D01*
Y674528D01*
X47504D01*
Y674903D01*
X46754D01*
Y675277D01*
X46005D01*
Y675652D01*
X45255D01*
Y676027D01*
X44881D01*
Y676401D01*
X44131D01*
Y676776D01*
X43382D01*
Y677151D01*
X43007D01*
Y677525D01*
X42258D01*
Y677900D01*
X41508D01*
Y678275D01*
X40759D01*
Y678650D01*
X40384D01*
Y679024D01*
X39635D01*
Y679399D01*
X38886D01*
Y679774D01*
X38511D01*
Y680148D01*
X38136D01*
Y680523D01*
Y680898D01*
X37761D01*
Y681272D01*
Y681647D01*
X37387D01*
Y682022D01*
Y682396D01*
Y682771D01*
Y683146D01*
X37012D01*
Y683521D01*
Y683895D01*
Y684270D01*
Y684645D01*
Y685019D01*
Y685394D01*
Y685769D01*
Y686143D01*
Y686518D01*
Y686893D01*
Y687268D01*
Y687642D01*
Y688017D01*
Y688392D01*
Y688766D01*
Y689141D01*
Y689516D01*
Y689891D01*
Y690265D01*
Y690640D01*
Y691014D01*
Y691389D01*
Y691764D01*
Y692139D01*
Y692513D01*
Y692888D01*
Y693263D01*
Y693637D01*
Y694012D01*
Y694387D01*
Y694762D01*
Y695136D01*
Y695511D01*
Y695886D01*
Y696260D01*
Y696635D01*
Y697010D01*
Y697384D01*
Y697759D01*
Y698134D01*
X37387D01*
Y698509D01*
Y698883D01*
X37761D01*
Y698509D01*
D02*
G37*
G36*
X101085Y703380D02*
Y703005D01*
Y702630D01*
Y702255D01*
Y701881D01*
Y701506D01*
Y701131D01*
Y700757D01*
Y700382D01*
Y700007D01*
Y699633D01*
Y699258D01*
Y698883D01*
Y698509D01*
Y698134D01*
Y697759D01*
Y697384D01*
Y697010D01*
Y696635D01*
Y696260D01*
Y695886D01*
Y695511D01*
Y695136D01*
X101460D01*
Y695511D01*
X101835D01*
Y695886D01*
X102209D01*
Y696260D01*
X102959D01*
Y696635D01*
X103334D01*
Y697010D01*
X104458D01*
Y697384D01*
X105582D01*
Y697759D01*
X110453D01*
Y697384D01*
X111577D01*
Y697010D01*
X112326D01*
Y696635D01*
X113076D01*
Y696260D01*
X113825D01*
Y695886D01*
X114200D01*
Y695511D01*
X114574D01*
Y695136D01*
X115324D01*
Y694762D01*
X115698D01*
Y694387D01*
Y694012D01*
X116073D01*
Y693637D01*
X116448D01*
Y693263D01*
X116823D01*
Y692888D01*
Y692513D01*
X117197D01*
Y692139D01*
Y691764D01*
X117572D01*
Y691389D01*
Y691014D01*
X117947D01*
Y690640D01*
Y690265D01*
Y689891D01*
Y689516D01*
X118321D01*
Y689141D01*
Y688766D01*
Y688392D01*
Y688017D01*
Y687642D01*
Y687268D01*
Y686893D01*
Y686518D01*
Y686143D01*
X117947D01*
Y685769D01*
Y685394D01*
Y685019D01*
Y684645D01*
X117572D01*
Y684270D01*
Y683895D01*
X117197D01*
Y683521D01*
Y683146D01*
X116823D01*
Y682771D01*
Y682396D01*
X116448D01*
Y682022D01*
Y681647D01*
X116073D01*
Y681272D01*
X115698D01*
Y680898D01*
X115324D01*
Y680523D01*
X114949D01*
Y680148D01*
X114574D01*
Y679774D01*
X114200D01*
Y679399D01*
X113450D01*
Y679024D01*
X112701D01*
Y678650D01*
X111952D01*
Y678275D01*
X110453D01*
Y677900D01*
X105582D01*
Y678275D01*
X104458D01*
Y678650D01*
X103334D01*
Y679024D01*
X102959D01*
Y679399D01*
X102209D01*
Y679774D01*
X101835D01*
Y680148D01*
X101460D01*
Y680523D01*
X101085D01*
Y680898D01*
X100711D01*
Y680523D01*
Y680148D01*
Y679774D01*
Y679399D01*
Y679024D01*
Y678650D01*
Y678275D01*
X96214D01*
Y678650D01*
Y679024D01*
Y679399D01*
Y679774D01*
Y680148D01*
Y680523D01*
Y680898D01*
Y681272D01*
Y681647D01*
Y682022D01*
Y682396D01*
Y682771D01*
Y683146D01*
Y683521D01*
Y683895D01*
Y684270D01*
Y684645D01*
Y685019D01*
Y685394D01*
Y685769D01*
Y686143D01*
Y686518D01*
Y686893D01*
Y687268D01*
Y687642D01*
Y688017D01*
Y688392D01*
Y688766D01*
Y689141D01*
Y689516D01*
Y689891D01*
Y690265D01*
Y690640D01*
Y691014D01*
Y691389D01*
Y691764D01*
Y692139D01*
Y692513D01*
Y692888D01*
Y693263D01*
Y693637D01*
Y694012D01*
Y694387D01*
Y694762D01*
Y695136D01*
Y695511D01*
Y695886D01*
Y696260D01*
Y696635D01*
Y697010D01*
Y697384D01*
Y697759D01*
Y698134D01*
Y698509D01*
Y698883D01*
Y699258D01*
Y699633D01*
Y700007D01*
Y700382D01*
Y700757D01*
Y701131D01*
Y701506D01*
Y701881D01*
Y702255D01*
Y702630D01*
Y703005D01*
Y703380D01*
Y703754D01*
X101085D01*
Y703380D01*
D02*
G37*
G36*
X72234Y698509D02*
Y698134D01*
Y697759D01*
Y697384D01*
Y697010D01*
Y696635D01*
Y696260D01*
Y695886D01*
Y695511D01*
Y695136D01*
Y694762D01*
Y694387D01*
Y694012D01*
Y693637D01*
Y693263D01*
Y692888D01*
Y692513D01*
Y692139D01*
Y691764D01*
Y691389D01*
Y691014D01*
Y690640D01*
Y690265D01*
Y689891D01*
Y689516D01*
Y689141D01*
Y688766D01*
Y688392D01*
Y688017D01*
Y687642D01*
Y687268D01*
Y686893D01*
Y686518D01*
Y686143D01*
Y685769D01*
Y685394D01*
Y685019D01*
Y684645D01*
Y684270D01*
Y683895D01*
Y683521D01*
Y683146D01*
Y682771D01*
Y682396D01*
Y682022D01*
Y681647D01*
X71859D01*
Y681272D01*
Y680898D01*
X71484D01*
Y680523D01*
X71109D01*
Y680148D01*
Y679774D01*
X70360D01*
Y679399D01*
X69985D01*
Y679024D01*
X69236D01*
Y678650D01*
X68861D01*
Y678275D01*
X68112D01*
Y677900D01*
X67363D01*
Y677525D01*
X66613D01*
Y677151D01*
X66238D01*
Y676776D01*
X65489D01*
Y676401D01*
X64740D01*
Y676027D01*
X63990D01*
Y675652D01*
X63616D01*
Y675277D01*
X62866D01*
Y674903D01*
X62117D01*
Y674528D01*
X61367D01*
Y674153D01*
X60993D01*
Y673779D01*
X60243D01*
Y673404D01*
X59494D01*
Y673029D01*
X58745D01*
Y672654D01*
X58370D01*
Y672280D01*
X57621D01*
Y671905D01*
X56871D01*
Y671530D01*
X56122D01*
Y671905D01*
Y672280D01*
Y672654D01*
Y673029D01*
Y673404D01*
Y673779D01*
Y674153D01*
Y674528D01*
Y674903D01*
Y675277D01*
Y675652D01*
Y676027D01*
Y676401D01*
Y676776D01*
Y677151D01*
Y677525D01*
Y677900D01*
Y678275D01*
Y678650D01*
Y679024D01*
Y679399D01*
Y679774D01*
Y680148D01*
Y680523D01*
Y680898D01*
Y681272D01*
Y681647D01*
Y682022D01*
Y682396D01*
Y682771D01*
Y683146D01*
Y683521D01*
Y683895D01*
Y684270D01*
Y684645D01*
Y685019D01*
Y685394D01*
Y685769D01*
Y686143D01*
Y686518D01*
Y686893D01*
Y687268D01*
Y687642D01*
X56496D01*
Y688017D01*
Y688392D01*
X56871D01*
Y688766D01*
Y689141D01*
X57246D01*
Y689516D01*
Y689891D01*
X57621D01*
Y690265D01*
X57995D01*
Y690640D01*
X58370D01*
Y691014D01*
X59119D01*
Y691389D01*
X59494D01*
Y691764D01*
X60243D01*
Y692139D01*
X60618D01*
Y692513D01*
X61367D01*
Y692888D01*
X62117D01*
Y693263D01*
X62866D01*
Y693637D01*
X63241D01*
Y694012D01*
X63990D01*
Y694387D01*
X64740D01*
Y694762D01*
X65114D01*
Y695136D01*
X65864D01*
Y695511D01*
X66613D01*
Y695886D01*
X67363D01*
Y696260D01*
X67737D01*
Y696635D01*
X68487D01*
Y697010D01*
X69236D01*
Y697384D01*
X69985D01*
Y697759D01*
X70360D01*
Y698134D01*
X71109D01*
Y698509D01*
X71859D01*
Y698883D01*
X72234D01*
Y698509D01*
D02*
G37*
G36*
X269324Y697759D02*
X270823D01*
Y697384D01*
X271947D01*
Y697010D01*
X272322D01*
Y696635D01*
X273071D01*
Y696260D01*
X273446D01*
Y695886D01*
Y695511D01*
X273821D01*
Y695136D01*
X274195D01*
Y694762D01*
Y694387D01*
X274570D01*
Y694012D01*
Y693637D01*
X274945D01*
Y693263D01*
Y692888D01*
Y692513D01*
Y692139D01*
Y691764D01*
Y691389D01*
X275319D01*
Y691014D01*
Y690640D01*
Y690265D01*
Y689891D01*
Y689516D01*
Y689141D01*
Y688766D01*
Y688392D01*
Y688017D01*
Y687642D01*
Y687268D01*
Y686893D01*
Y686518D01*
Y686143D01*
Y685769D01*
Y685394D01*
Y685019D01*
Y684645D01*
Y684270D01*
Y683895D01*
Y683521D01*
Y683146D01*
Y682771D01*
Y682396D01*
Y682022D01*
Y681647D01*
Y681272D01*
Y680898D01*
Y680523D01*
Y680148D01*
Y679774D01*
Y679399D01*
Y679024D01*
Y678650D01*
Y678275D01*
X269699D01*
Y678650D01*
Y679024D01*
Y679399D01*
Y679774D01*
Y680148D01*
Y680523D01*
Y680898D01*
Y681272D01*
Y681647D01*
Y682022D01*
Y682396D01*
Y682771D01*
Y683146D01*
Y683521D01*
Y683895D01*
Y684270D01*
Y684645D01*
Y685019D01*
Y685394D01*
Y685769D01*
Y686143D01*
Y686518D01*
Y686893D01*
Y687268D01*
Y687642D01*
Y688017D01*
Y688392D01*
Y688766D01*
Y689141D01*
Y689516D01*
Y689891D01*
Y690265D01*
X269324D01*
Y690640D01*
Y691014D01*
Y691389D01*
X268950D01*
Y691764D01*
Y692139D01*
X268575D01*
Y692513D01*
X267451D01*
Y692888D01*
X265203D01*
Y692513D01*
X264453D01*
Y692139D01*
X264079D01*
Y691764D01*
X263704D01*
Y691389D01*
Y691014D01*
X263329D01*
Y690640D01*
Y690265D01*
Y689891D01*
Y689516D01*
Y689141D01*
Y688766D01*
Y688392D01*
Y688017D01*
Y687642D01*
Y687268D01*
Y686893D01*
Y686518D01*
Y686143D01*
Y685769D01*
Y685394D01*
Y685019D01*
Y684645D01*
Y684270D01*
Y683895D01*
Y683521D01*
Y683146D01*
Y682771D01*
Y682396D01*
Y682022D01*
Y681647D01*
Y681272D01*
Y680898D01*
Y680523D01*
Y680148D01*
Y679774D01*
Y679399D01*
Y679024D01*
Y678650D01*
Y678275D01*
X257709D01*
Y678650D01*
Y679024D01*
Y679399D01*
Y679774D01*
Y680148D01*
Y680523D01*
Y680898D01*
Y681272D01*
Y681647D01*
Y682022D01*
Y682396D01*
Y682771D01*
Y683146D01*
Y683521D01*
Y683895D01*
Y684270D01*
Y684645D01*
Y685019D01*
Y685394D01*
Y685769D01*
Y686143D01*
Y686518D01*
Y686893D01*
Y687268D01*
Y687642D01*
Y688017D01*
Y688392D01*
Y688766D01*
Y689141D01*
Y689516D01*
Y689891D01*
Y690265D01*
Y690640D01*
Y691014D01*
Y691389D01*
Y691764D01*
Y692139D01*
Y692513D01*
Y692888D01*
Y693263D01*
Y693637D01*
Y694012D01*
Y694387D01*
Y694762D01*
Y695136D01*
Y695511D01*
Y695886D01*
Y696260D01*
Y696635D01*
Y697010D01*
Y697384D01*
X262580D01*
Y697010D01*
Y696635D01*
Y696260D01*
Y695886D01*
Y695511D01*
X263329D01*
Y695886D01*
X263704D01*
Y696260D01*
Y696635D01*
X264453D01*
Y697010D01*
X264828D01*
Y697384D01*
X265577D01*
Y697759D01*
X267076D01*
Y698134D01*
X269324D01*
Y697759D01*
D02*
G37*
G36*
X191762Y697384D02*
X192886D01*
Y697010D01*
X193635D01*
Y696635D01*
X194385D01*
Y696260D01*
X195134D01*
Y695886D01*
X195509D01*
Y695511D01*
X195884D01*
Y695136D01*
X196258D01*
Y694762D01*
X196633D01*
Y694387D01*
Y694012D01*
X197008D01*
Y693637D01*
Y693263D01*
X197382D01*
Y692888D01*
Y692513D01*
Y692139D01*
X197757D01*
Y691764D01*
Y691389D01*
Y691014D01*
Y690640D01*
Y690265D01*
Y689891D01*
Y689516D01*
Y689141D01*
Y688766D01*
Y688392D01*
Y688017D01*
Y687642D01*
Y687268D01*
Y686893D01*
Y686518D01*
Y686143D01*
Y685769D01*
Y685394D01*
Y685019D01*
Y684645D01*
Y684270D01*
Y683895D01*
Y683521D01*
Y683146D01*
Y682771D01*
Y682396D01*
Y682022D01*
Y681647D01*
Y681272D01*
Y680898D01*
Y680523D01*
Y680148D01*
Y679774D01*
Y679399D01*
Y679024D01*
Y678650D01*
Y678275D01*
X193261D01*
Y678650D01*
Y679024D01*
Y679399D01*
Y679774D01*
Y680148D01*
Y680523D01*
Y680898D01*
Y681272D01*
Y681647D01*
Y682022D01*
Y682396D01*
Y682771D01*
Y683146D01*
Y683521D01*
Y683895D01*
Y684270D01*
Y684645D01*
Y685019D01*
Y685394D01*
Y685769D01*
Y686143D01*
Y686518D01*
Y686893D01*
Y687268D01*
Y687642D01*
Y688017D01*
Y688392D01*
X192886D01*
Y688766D01*
Y689141D01*
Y689516D01*
Y689891D01*
Y690265D01*
Y690640D01*
Y691014D01*
X192511D01*
Y691389D01*
Y691764D01*
X192137D01*
Y692139D01*
X191762D01*
Y692513D01*
X191387D01*
Y692888D01*
X191013D01*
Y693263D01*
X189888D01*
Y693637D01*
X187640D01*
Y693263D01*
X186516D01*
Y692888D01*
X186141D01*
Y692513D01*
X185392D01*
Y692139D01*
Y691764D01*
X185017D01*
Y691389D01*
X184643D01*
Y691014D01*
Y690640D01*
Y690265D01*
Y689891D01*
X184268D01*
Y689516D01*
Y689141D01*
Y688766D01*
Y688392D01*
Y688017D01*
Y687642D01*
Y687268D01*
Y686893D01*
Y686518D01*
Y686143D01*
Y685769D01*
Y685394D01*
Y685019D01*
Y684645D01*
Y684270D01*
Y683895D01*
Y683521D01*
Y683146D01*
Y682771D01*
Y682396D01*
Y682022D01*
Y681647D01*
Y681272D01*
Y680898D01*
Y680523D01*
Y680148D01*
Y679774D01*
Y679399D01*
Y679024D01*
Y678650D01*
Y678275D01*
X179397D01*
Y678650D01*
Y679024D01*
Y679399D01*
Y679774D01*
Y680148D01*
Y680523D01*
Y680898D01*
Y681272D01*
Y681647D01*
Y682022D01*
Y682396D01*
Y682771D01*
Y683146D01*
Y683521D01*
Y683895D01*
Y684270D01*
Y684645D01*
Y685019D01*
Y685394D01*
Y685769D01*
Y686143D01*
Y686518D01*
Y686893D01*
Y687268D01*
Y687642D01*
Y688017D01*
Y688392D01*
Y688766D01*
Y689141D01*
Y689516D01*
Y689891D01*
Y690265D01*
Y690640D01*
Y691014D01*
Y691389D01*
Y691764D01*
Y692139D01*
Y692513D01*
Y692888D01*
Y693263D01*
Y693637D01*
Y694012D01*
Y694387D01*
Y694762D01*
Y695136D01*
Y695511D01*
Y695886D01*
Y696260D01*
Y696635D01*
Y697010D01*
Y697384D01*
X183893D01*
Y697010D01*
Y696635D01*
Y696260D01*
Y695886D01*
Y695511D01*
X184268D01*
Y695886D01*
X184643D01*
Y696260D01*
X185392D01*
Y696635D01*
X185767D01*
Y697010D01*
X186516D01*
Y697384D01*
X188015D01*
Y697759D01*
X191762D01*
Y697384D01*
D02*
G37*
G36*
X56122Y709749D02*
X56871D01*
Y709375D01*
X57621D01*
Y709000D01*
X58370D01*
Y708625D01*
X59119D01*
Y708251D01*
X59494D01*
Y707876D01*
X60243D01*
Y707501D01*
X60993D01*
Y707126D01*
X61742D01*
Y706752D01*
X62117D01*
Y706377D01*
X62866D01*
Y706002D01*
X63616D01*
Y705628D01*
X64365D01*
Y705253D01*
X64740D01*
Y704878D01*
X65489D01*
Y704504D01*
X66238D01*
Y704129D01*
X66613D01*
Y703754D01*
X67363D01*
Y703380D01*
X68112D01*
Y703005D01*
X68861D01*
Y702630D01*
X69236D01*
Y702255D01*
X69985D01*
Y701881D01*
X70360D01*
Y701506D01*
X71109D01*
Y701131D01*
X70360D01*
Y700757D01*
X69985D01*
Y700382D01*
X69236D01*
Y700007D01*
X68487D01*
Y699633D01*
X67737D01*
Y699258D01*
X67363D01*
Y698883D01*
X66613D01*
Y698509D01*
X65864D01*
Y698134D01*
X65489D01*
Y697759D01*
X64740D01*
Y697384D01*
X63990D01*
Y697010D01*
X63241D01*
Y696635D01*
X62866D01*
Y696260D01*
X62117D01*
Y695886D01*
X61367D01*
Y695511D01*
X60618D01*
Y695136D01*
X60243D01*
Y694762D01*
X59494D01*
Y694387D01*
X58745D01*
Y694012D01*
X57995D01*
Y693637D01*
X57621D01*
Y693263D01*
X57246D01*
Y692888D01*
X56496D01*
Y692513D01*
X56122D01*
Y692139D01*
X55747D01*
Y691764D01*
X55372D01*
Y691389D01*
X54998D01*
Y691014D01*
Y690640D01*
X54623D01*
Y691014D01*
X54248D01*
Y691389D01*
X53874D01*
Y691764D01*
Y692139D01*
X53499D01*
Y692513D01*
X52749D01*
Y692888D01*
X52375D01*
Y693263D01*
X52000D01*
Y693637D01*
X51251D01*
Y694012D01*
X50501D01*
Y694387D01*
X50127D01*
Y694762D01*
X49377D01*
Y695136D01*
X48628D01*
Y695511D01*
X48253D01*
Y695886D01*
X47504D01*
Y696260D01*
X46754D01*
Y696635D01*
X46005D01*
Y697010D01*
X45630D01*
Y697384D01*
X44881D01*
Y697759D01*
X44131D01*
Y698134D01*
X43382D01*
Y698509D01*
X43007D01*
Y698883D01*
X42258D01*
Y699258D01*
X41508D01*
Y699633D01*
X40759D01*
Y700007D01*
X40384D01*
Y700382D01*
X39635D01*
Y700757D01*
X38886D01*
Y701131D01*
X38511D01*
Y701506D01*
X38886D01*
Y701881D01*
X39635D01*
Y702255D01*
X40010D01*
Y702630D01*
X40759D01*
Y703005D01*
X41508D01*
Y703380D01*
X42258D01*
Y703754D01*
X42633D01*
Y704129D01*
X43382D01*
Y704504D01*
X44131D01*
Y704878D01*
X44881D01*
Y705253D01*
X45255D01*
Y705628D01*
X46005D01*
Y706002D01*
X46754D01*
Y706377D01*
X47504D01*
Y706752D01*
X47878D01*
Y707126D01*
X48628D01*
Y707501D01*
X49377D01*
Y707876D01*
X49752D01*
Y708251D01*
X50501D01*
Y708625D01*
X51251D01*
Y709000D01*
X52000D01*
Y709375D01*
X52375D01*
Y709749D01*
X53499D01*
Y710124D01*
X56122D01*
Y709749D01*
D02*
G37*
G36*
X253212Y697010D02*
Y696635D01*
Y696260D01*
Y695886D01*
Y695511D01*
Y695136D01*
Y694762D01*
Y694387D01*
Y694012D01*
Y693637D01*
Y693263D01*
Y692888D01*
Y692513D01*
Y692139D01*
Y691764D01*
Y691389D01*
Y691014D01*
Y690640D01*
Y690265D01*
Y689891D01*
Y689516D01*
Y689141D01*
Y688766D01*
Y688392D01*
Y688017D01*
Y687642D01*
Y687268D01*
Y686893D01*
Y686518D01*
Y686143D01*
Y685769D01*
Y685394D01*
Y685019D01*
Y684645D01*
Y684270D01*
Y683895D01*
Y683521D01*
Y683146D01*
Y682771D01*
Y682396D01*
Y682022D01*
Y681647D01*
Y681272D01*
Y680898D01*
Y680523D01*
Y680148D01*
Y679774D01*
Y679399D01*
Y679024D01*
Y678650D01*
Y678275D01*
X247592D01*
Y678650D01*
Y679024D01*
Y679399D01*
Y679774D01*
Y680148D01*
Y680523D01*
Y680898D01*
Y681272D01*
Y681647D01*
Y682022D01*
Y682396D01*
Y682771D01*
Y683146D01*
Y683521D01*
Y683895D01*
Y684270D01*
Y684645D01*
Y685019D01*
Y685394D01*
Y685769D01*
Y686143D01*
Y686518D01*
Y686893D01*
Y687268D01*
Y687642D01*
Y688017D01*
Y688392D01*
Y688766D01*
Y689141D01*
Y689516D01*
Y689891D01*
Y690265D01*
Y690640D01*
Y691014D01*
Y691389D01*
Y691764D01*
Y692139D01*
Y692513D01*
Y692888D01*
Y693263D01*
Y693637D01*
Y694012D01*
Y694387D01*
Y694762D01*
Y695136D01*
Y695511D01*
Y695886D01*
Y696260D01*
Y696635D01*
Y697010D01*
Y697384D01*
X253212D01*
Y697010D01*
D02*
G37*
G36*
X55747Y716869D02*
X57246D01*
Y716494D01*
X57995D01*
Y716119D01*
X58745D01*
Y715744D01*
X59494D01*
Y715370D01*
X60243D01*
Y714995D01*
X60618D01*
Y714621D01*
X61367D01*
Y714246D01*
X62117D01*
Y713871D01*
X62866D01*
Y713496D01*
X63241D01*
Y713122D01*
X63990D01*
Y712747D01*
X64740D01*
Y712372D01*
X65489D01*
Y711998D01*
X65864D01*
Y711623D01*
X66613D01*
Y711248D01*
X67363D01*
Y710873D01*
X67737D01*
Y710499D01*
X68487D01*
Y710124D01*
X69236D01*
Y709749D01*
X69985D01*
Y709375D01*
X70360D01*
Y709000D01*
X71109D01*
Y708625D01*
X71859D01*
Y708251D01*
X72608D01*
Y707876D01*
X72983D01*
Y707501D01*
X73732D01*
Y707126D01*
X74482D01*
Y706752D01*
X75231D01*
Y706377D01*
X75606D01*
Y706002D01*
X75981D01*
Y705628D01*
X76355D01*
Y705253D01*
X76730D01*
Y704878D01*
X77105D01*
Y704504D01*
X76355D01*
Y704129D01*
X75606D01*
Y703754D01*
X75231D01*
Y703380D01*
X74482D01*
Y703005D01*
X73732D01*
Y702630D01*
X72983D01*
Y703005D01*
X72608D01*
Y703380D01*
X72234D01*
Y703754D01*
X71859D01*
Y704129D01*
X71109D01*
Y704504D01*
X70360D01*
Y704878D01*
X69985D01*
Y705253D01*
X69236D01*
Y705628D01*
X68487D01*
Y706002D01*
X67737D01*
Y706377D01*
X67363D01*
Y706752D01*
X66613D01*
Y707126D01*
X65864D01*
Y707501D01*
X65114D01*
Y707876D01*
X64740D01*
Y708251D01*
X63990D01*
Y708625D01*
X63241D01*
Y709000D01*
X62491D01*
Y709375D01*
X62117D01*
Y709749D01*
X61367D01*
Y710124D01*
X60618D01*
Y710499D01*
X60243D01*
Y710873D01*
X59494D01*
Y711248D01*
X58745D01*
Y711623D01*
X57995D01*
Y711998D01*
X57246D01*
Y712372D01*
X55372D01*
Y712747D01*
X54248D01*
Y712372D01*
X52375D01*
Y711998D01*
X51251D01*
Y711623D01*
X50876D01*
Y711248D01*
X50127D01*
Y710873D01*
X49377D01*
Y710499D01*
X48628D01*
Y710124D01*
X48253D01*
Y709749D01*
X47504D01*
Y709375D01*
X46754D01*
Y709000D01*
X46380D01*
Y708625D01*
X45630D01*
Y708251D01*
X44881D01*
Y707876D01*
X44131D01*
Y707501D01*
X43757D01*
Y707126D01*
X43007D01*
Y706752D01*
X42258D01*
Y706377D01*
X41508D01*
Y706002D01*
X41134D01*
Y705628D01*
X40384D01*
Y705253D01*
X39635D01*
Y704878D01*
X38886D01*
Y704504D01*
X38511D01*
Y704129D01*
X37761D01*
Y703754D01*
X37387D01*
Y703380D01*
X37012D01*
Y703005D01*
X36637D01*
Y702630D01*
X35888D01*
Y703005D01*
X35139D01*
Y703380D01*
X34389D01*
Y703754D01*
X33640D01*
Y704129D01*
X33265D01*
Y704504D01*
X32516D01*
Y704878D01*
X32891D01*
Y705253D01*
Y705628D01*
X33640D01*
Y706002D01*
X34015D01*
Y706377D01*
X34389D01*
Y706752D01*
X35139D01*
Y707126D01*
X35888D01*
Y707501D01*
X36263D01*
Y707876D01*
X37012D01*
Y708251D01*
X37761D01*
Y708625D01*
X38511D01*
Y709000D01*
X38886D01*
Y709375D01*
X39635D01*
Y709749D01*
X40384D01*
Y710124D01*
X41134D01*
Y710499D01*
X41508D01*
Y710873D01*
X42258D01*
Y711248D01*
X43007D01*
Y711623D01*
X43757D01*
Y711998D01*
X44131D01*
Y712372D01*
X44881D01*
Y712747D01*
X45630D01*
Y713122D01*
X46005D01*
Y713496D01*
X46754D01*
Y713871D01*
X47504D01*
Y714246D01*
X48253D01*
Y714621D01*
X48628D01*
Y714995D01*
X49377D01*
Y715370D01*
X50127D01*
Y715744D01*
X50876D01*
Y716119D01*
X51251D01*
Y716494D01*
X52375D01*
Y716869D01*
X53499D01*
Y717243D01*
X55747D01*
Y716869D01*
D02*
G37*
G36*
X253212Y703380D02*
Y703005D01*
Y702630D01*
Y702255D01*
Y701881D01*
Y701506D01*
Y701131D01*
Y700757D01*
Y700382D01*
Y700007D01*
Y699633D01*
X247592D01*
Y700007D01*
Y700382D01*
Y700757D01*
Y701131D01*
Y701506D01*
Y701881D01*
Y702255D01*
Y702630D01*
Y703005D01*
Y703380D01*
Y703754D01*
X253212D01*
Y703380D01*
D02*
G37*
%LPC*%
G36*
X132935Y693637D02*
X130312D01*
Y693263D01*
X128813D01*
Y692888D01*
X128063D01*
Y692513D01*
X127689D01*
Y692139D01*
X126939D01*
Y691764D01*
X126565D01*
Y691389D01*
Y691014D01*
X126190D01*
Y690640D01*
X125815D01*
Y690265D01*
Y689891D01*
X125441D01*
Y689516D01*
Y689141D01*
Y688766D01*
Y688392D01*
Y688017D01*
Y687642D01*
Y687268D01*
Y686893D01*
Y686518D01*
Y686143D01*
Y685769D01*
X125815D01*
Y685394D01*
Y685019D01*
X126190D01*
Y684645D01*
Y684270D01*
X126565D01*
Y683895D01*
X126939D01*
Y683521D01*
X127314D01*
Y683146D01*
X128063D01*
Y682771D01*
X128813D01*
Y682396D01*
X129562D01*
Y682022D01*
X133309D01*
Y682396D01*
X134433D01*
Y682771D01*
X135183D01*
Y683146D01*
X135557D01*
Y683521D01*
X136307D01*
Y683895D01*
Y684270D01*
X136681D01*
Y684645D01*
X137056D01*
Y685019D01*
Y685394D01*
X137431D01*
Y685769D01*
Y686143D01*
Y686518D01*
X137806D01*
Y686893D01*
X138180D01*
Y687268D01*
Y687642D01*
X137806D01*
Y688017D01*
Y688392D01*
Y688766D01*
Y689141D01*
X137431D01*
Y689516D01*
Y689891D01*
Y690265D01*
X137056D01*
Y690640D01*
Y691014D01*
X136681D01*
Y691389D01*
X136307D01*
Y691764D01*
X135932D01*
Y692139D01*
X135557D01*
Y692513D01*
X135183D01*
Y692888D01*
X134433D01*
Y693263D01*
X132935D01*
Y693637D01*
D02*
G37*
G36*
X166657D02*
X164034D01*
Y693263D01*
X162910D01*
Y692888D01*
X162161D01*
Y692513D01*
X161411D01*
Y692139D01*
X161037D01*
Y691764D01*
X160662D01*
Y691389D01*
X160287D01*
Y691014D01*
X159913D01*
Y690640D01*
X159538D01*
Y690265D01*
Y689891D01*
X171154D01*
Y690265D01*
Y690640D01*
X170779D01*
Y691014D01*
X170404D01*
Y691389D01*
Y691764D01*
X170030D01*
Y692139D01*
X169280D01*
Y692513D01*
X168906D01*
Y692888D01*
X168156D01*
Y693263D01*
X166657D01*
Y693637D01*
D02*
G37*
G36*
X213869D02*
X210872D01*
Y693263D01*
X209747D01*
Y692888D01*
X208998D01*
Y692513D01*
X208249D01*
Y692139D01*
X207874D01*
Y691764D01*
X207499D01*
Y691389D01*
X207125D01*
Y691014D01*
Y690640D01*
X206750D01*
Y690265D01*
Y689891D01*
X206375D01*
Y689516D01*
Y689141D01*
Y688766D01*
X206000D01*
Y688392D01*
Y688017D01*
Y687642D01*
Y687268D01*
Y686893D01*
Y686518D01*
X206375D01*
Y686143D01*
Y685769D01*
Y685394D01*
X206750D01*
Y685019D01*
Y684645D01*
X207125D01*
Y684270D01*
X207499D01*
Y683895D01*
X207874D01*
Y683521D01*
X208249D01*
Y683146D01*
X208623D01*
Y682771D01*
X209373D01*
Y682396D01*
X210497D01*
Y682022D01*
X214244D01*
Y682396D01*
X215368D01*
Y682771D01*
X216117D01*
Y683146D01*
X216492D01*
Y683521D01*
X216867D01*
Y683895D01*
X217241D01*
Y684270D01*
X217616D01*
Y684645D01*
X217991D01*
Y685019D01*
Y685394D01*
X218365D01*
Y685769D01*
Y686143D01*
Y686518D01*
Y686893D01*
X218740D01*
Y687268D01*
Y687642D01*
Y688017D01*
Y688392D01*
Y688766D01*
X218365D01*
Y689141D01*
Y689516D01*
Y689891D01*
Y690265D01*
X217991D01*
Y690640D01*
Y691014D01*
X217616D01*
Y691389D01*
X217241D01*
Y691764D01*
X216867D01*
Y692139D01*
X216492D01*
Y692513D01*
X216117D01*
Y692888D01*
X215368D01*
Y693263D01*
X213869D01*
Y693637D01*
D02*
G37*
G36*
X108954D02*
X105956D01*
Y693263D01*
X104458D01*
Y692888D01*
X103708D01*
Y692513D01*
X103334D01*
Y692139D01*
X102584D01*
Y691764D01*
X102209D01*
Y691389D01*
X101835D01*
Y691014D01*
Y690640D01*
X101460D01*
Y690265D01*
Y689891D01*
X101085D01*
Y689516D01*
Y689141D01*
Y688766D01*
Y688392D01*
Y688017D01*
Y687642D01*
Y687268D01*
Y686893D01*
Y686518D01*
Y686143D01*
Y685769D01*
X101460D01*
Y685394D01*
Y685019D01*
X101835D01*
Y684645D01*
X102209D01*
Y684270D01*
Y683895D01*
X102584D01*
Y683521D01*
X102959D01*
Y683146D01*
X103708D01*
Y682771D01*
X104458D01*
Y682396D01*
X105582D01*
Y682022D01*
X108954D01*
Y682396D01*
X110078D01*
Y682771D01*
X110827D01*
Y683146D01*
X111577D01*
Y683521D01*
X111952D01*
Y683895D01*
X112326D01*
Y684270D01*
Y684645D01*
X112701D01*
Y685019D01*
X113076D01*
Y685394D01*
Y685769D01*
Y686143D01*
X113450D01*
Y686518D01*
Y686893D01*
Y687268D01*
Y687642D01*
Y688017D01*
Y688392D01*
Y688766D01*
Y689141D01*
Y689516D01*
X113076D01*
Y689891D01*
Y690265D01*
X112701D01*
Y690640D01*
Y691014D01*
X112326D01*
Y691389D01*
X111952D01*
Y691764D01*
X111577D01*
Y692139D01*
X111202D01*
Y692513D01*
X110827D01*
Y692888D01*
X110078D01*
Y693263D01*
X108954D01*
Y693637D01*
D02*
G37*
%LPD*%
D11*
X565000Y6000D02*
Y650000D01*
X6000D02*
X565000D01*
Y6000D02*
Y650000D01*
X6000D02*
X565000D01*
X6000D02*
X565000D01*
Y6000D02*
Y650000D01*
X410000Y656000D02*
Y665997D01*
X414998D01*
X416665Y664331D01*
Y660998D01*
X414998Y659332D01*
X410000D01*
X413332D02*
X416665Y656000D01*
X419997D02*
Y665997D01*
X424995D01*
X426661Y664331D01*
Y660998D01*
X424995Y659332D01*
X419997D01*
X429994Y656000D02*
X433326D01*
X431660D01*
Y662664D01*
X429994D01*
X448321Y665997D02*
Y656000D01*
Y660998D01*
X454986D01*
Y665997D01*
Y656000D01*
X458318D02*
Y662664D01*
X461650Y665997D01*
X464982Y662664D01*
Y656000D01*
Y660998D01*
X458318D01*
X468315Y665997D02*
X474979D01*
X471647D01*
Y656000D01*
X488308D02*
Y665997D01*
X493307D01*
X494973Y664331D01*
Y660998D01*
X493307Y659332D01*
X488308D01*
X503303Y656000D02*
X499971D01*
X498305Y657666D01*
Y660998D01*
X499971Y662664D01*
X503303D01*
X504969Y660998D01*
Y659332D01*
X498305D01*
X508302Y662664D02*
Y656000D01*
Y659332D01*
X509968Y660998D01*
X511634Y662664D01*
X513300D01*
X518298Y656000D02*
X521631D01*
X519965D01*
Y662664D01*
X518298D01*
X526629Y656000D02*
Y662664D01*
X528295D01*
X529961Y660998D01*
Y656000D01*
Y660998D01*
X531628Y662664D01*
X533294Y660998D01*
Y656000D01*
X541624D02*
X538292D01*
X536626Y657666D01*
Y660998D01*
X538292Y662664D01*
X541624D01*
X543290Y660998D01*
Y659332D01*
X536626D01*
X548289Y664331D02*
Y662664D01*
X546623D01*
X549955D01*
X548289D01*
Y657666D01*
X549955Y656000D01*
X559952D02*
X556619D01*
X554953Y657666D01*
Y660998D01*
X556619Y662664D01*
X559952D01*
X561618Y660998D01*
Y659332D01*
X554953D01*
X564950Y662664D02*
Y656000D01*
Y659332D01*
X566616Y660998D01*
X568282Y662664D01*
X569948D01*
M02*
