G04 Layer_Color=1052688*
%FSLAX44Y44*%
%MOMM*%
G71*
G01*
G75*
%ADD14C,0.2540*%
%ADD17C,0.3810*%
%ADD18C,0.0254*%
D14*
X739184Y-35805D02*
Y-51040D01*
X746801D01*
X749340Y-48501D01*
Y-45962D01*
X746801Y-43422D01*
X739184D01*
X746801D01*
X749340Y-40883D01*
Y-38344D01*
X746801Y-35805D01*
X739184D01*
X756958Y-51040D02*
X762036D01*
X764575Y-48501D01*
Y-43422D01*
X762036Y-40883D01*
X756958D01*
X754419Y-43422D01*
Y-48501D01*
X756958Y-51040D01*
X772193Y-40883D02*
X777271D01*
X779810Y-43422D01*
Y-51040D01*
X772193D01*
X769654Y-48501D01*
X772193Y-45962D01*
X779810D01*
X784889Y-40883D02*
Y-51040D01*
Y-45962D01*
X787428Y-43422D01*
X789967Y-40883D01*
X792506D01*
X810281Y-35805D02*
Y-51040D01*
X802663D01*
X800124Y-48501D01*
Y-43422D01*
X802663Y-40883D01*
X810281D01*
X830594Y-35805D02*
Y-51040D01*
X840751D01*
X848368Y-40883D02*
X853447D01*
X855986Y-43422D01*
Y-51040D01*
X848368D01*
X845829Y-48501D01*
X848368Y-45962D01*
X855986D01*
X861064Y-40883D02*
Y-48501D01*
X863603Y-51040D01*
X871221D01*
Y-53579D01*
X868682Y-56118D01*
X866143D01*
X871221Y-51040D02*
Y-40883D01*
X883917Y-51040D02*
X878839D01*
X876299Y-48501D01*
Y-43422D01*
X878839Y-40883D01*
X883917D01*
X886456Y-43422D01*
Y-45962D01*
X876299D01*
X891534Y-40883D02*
Y-51040D01*
Y-45962D01*
X894073Y-43422D01*
X896613Y-40883D01*
X899152D01*
X932161Y-38344D02*
X929622Y-35805D01*
X924544D01*
X922004Y-38344D01*
Y-40883D01*
X924544Y-43422D01*
X929622D01*
X932161Y-45962D01*
Y-48501D01*
X929622Y-51040D01*
X924544D01*
X922004Y-48501D01*
X939779Y-38344D02*
Y-40883D01*
X937240D01*
X942318D01*
X939779D01*
Y-48501D01*
X942318Y-51040D01*
X952475Y-40883D02*
X957553D01*
X960092Y-43422D01*
Y-51040D01*
X952475D01*
X949935Y-48501D01*
X952475Y-45962D01*
X960092D01*
X975327Y-40883D02*
X967710D01*
X965171Y-43422D01*
Y-48501D01*
X967710Y-51040D01*
X975327D01*
X980406D02*
Y-35805D01*
Y-45962D02*
X988023Y-40883D01*
X980406Y-45962D02*
X988023Y-51040D01*
X594439Y-99304D02*
X596978Y-96765D01*
X602057D01*
X604596Y-99304D01*
Y-101843D01*
X602057Y-104382D01*
X599517D01*
X602057D01*
X604596Y-106922D01*
Y-109461D01*
X602057Y-112000D01*
X596978D01*
X594439Y-109461D01*
X609674Y-112000D02*
Y-109461D01*
X612213D01*
Y-112000D01*
X609674D01*
X632527Y-96765D02*
X622370D01*
Y-104382D01*
X627448Y-101843D01*
X629987D01*
X632527Y-104382D01*
Y-109461D01*
X629987Y-112000D01*
X624909D01*
X622370Y-109461D01*
X602057Y-172960D02*
Y-157725D01*
X594439Y-165343D01*
X604596D01*
X609674Y-172960D02*
Y-170421D01*
X612213D01*
Y-172960D01*
X609674D01*
X632527D02*
X622370D01*
X632527Y-162803D01*
Y-160264D01*
X629987Y-157725D01*
X624909D01*
X622370Y-160264D01*
X594439Y-221224D02*
X596978Y-218685D01*
X602057D01*
X604596Y-221224D01*
Y-223763D01*
X602057Y-226303D01*
X599517D01*
X602057D01*
X604596Y-228842D01*
Y-231381D01*
X602057Y-233920D01*
X596978D01*
X594439Y-231381D01*
X609674Y-233920D02*
Y-231381D01*
X612213D01*
Y-233920D01*
X609674D01*
X632527Y-218685D02*
X622370D01*
Y-226303D01*
X627448Y-223763D01*
X629987D01*
X632527Y-226303D01*
Y-231381D01*
X629987Y-233920D01*
X624909D01*
X622370Y-231381D01*
X604596Y-38344D02*
X602057Y-35805D01*
X596978D01*
X594439Y-38344D01*
Y-48501D01*
X596978Y-51040D01*
X602057D01*
X604596Y-48501D01*
X612213Y-51040D02*
X617292D01*
X619831Y-48501D01*
Y-43422D01*
X617292Y-40883D01*
X612213D01*
X609674Y-43422D01*
Y-48501D01*
X612213Y-51040D01*
X624909D02*
Y-40883D01*
X632527D01*
X635066Y-43422D01*
Y-51040D01*
X640144D02*
X647762D01*
X650301Y-48501D01*
X647762Y-45962D01*
X642683D01*
X640144Y-43422D01*
X642683Y-40883D01*
X650301D01*
X657918Y-38344D02*
Y-40883D01*
X655379D01*
X660458D01*
X657918D01*
Y-48501D01*
X660458Y-51040D01*
X670614Y-40883D02*
X675693D01*
X678232Y-43422D01*
Y-51040D01*
X670614D01*
X668075Y-48501D01*
X670614Y-45962D01*
X678232D01*
X683310Y-51040D02*
Y-40883D01*
X690928D01*
X693467Y-43422D01*
Y-51040D01*
X701085Y-38344D02*
Y-40883D01*
X698545D01*
X703624D01*
X701085D01*
Y-48501D01*
X703624Y-51040D01*
X429381Y-99304D02*
X431920Y-96765D01*
X436998D01*
X439538Y-99304D01*
Y-109461D01*
X436998Y-112000D01*
X431920D01*
X429381Y-109461D01*
Y-99304D01*
X444616Y-112000D02*
Y-109461D01*
X447155D01*
Y-112000D01*
X444616D01*
X457312Y-99304D02*
X459851Y-96765D01*
X464929D01*
X467468Y-99304D01*
Y-109461D01*
X464929Y-112000D01*
X459851D01*
X457312Y-109461D01*
Y-99304D01*
X472547Y-112000D02*
X477625D01*
X475086D01*
Y-96765D01*
X472547Y-99304D01*
X485243D02*
X487782Y-96765D01*
X492860D01*
X495400Y-99304D01*
Y-109461D01*
X492860Y-112000D01*
X487782D01*
X485243Y-109461D01*
Y-99304D01*
X500478Y-112000D02*
Y-101843D01*
X503017D01*
X505556Y-104382D01*
Y-112000D01*
Y-104382D01*
X508095Y-101843D01*
X510634Y-104382D01*
Y-112000D01*
X515713D02*
Y-101843D01*
X518252D01*
X520791Y-104382D01*
Y-112000D01*
Y-104382D01*
X523330Y-101843D01*
X525870Y-104382D01*
Y-112000D01*
X429381Y-129784D02*
X431920Y-127245D01*
X436998D01*
X439538Y-129784D01*
Y-139941D01*
X436998Y-142480D01*
X431920D01*
X429381Y-139941D01*
Y-129784D01*
X444616Y-142480D02*
Y-139941D01*
X447155D01*
Y-142480D01*
X444616D01*
X457312Y-129784D02*
X459851Y-127245D01*
X464929D01*
X467468Y-129784D01*
Y-139941D01*
X464929Y-142480D01*
X459851D01*
X457312Y-139941D01*
Y-129784D01*
X472547D02*
X475086Y-127245D01*
X480164D01*
X482704Y-129784D01*
Y-132323D01*
X480164Y-134862D01*
X477625D01*
X480164D01*
X482704Y-137402D01*
Y-139941D01*
X480164Y-142480D01*
X475086D01*
X472547Y-139941D01*
X497939Y-127245D02*
X492860Y-129784D01*
X487782Y-134862D01*
Y-139941D01*
X490321Y-142480D01*
X495400D01*
X497939Y-139941D01*
Y-137402D01*
X495400Y-134862D01*
X487782D01*
X503017Y-142480D02*
Y-132323D01*
X505556D01*
X508095Y-134862D01*
Y-142480D01*
Y-134862D01*
X510634Y-132323D01*
X513174Y-134862D01*
Y-142480D01*
X518252D02*
Y-132323D01*
X520791D01*
X523330Y-134862D01*
Y-142480D01*
Y-134862D01*
X525870Y-132323D01*
X528409Y-134862D01*
Y-142480D01*
X429381Y-160264D02*
X431920Y-157725D01*
X436998D01*
X439538Y-160264D01*
Y-170421D01*
X436998Y-172960D01*
X431920D01*
X429381Y-170421D01*
Y-160264D01*
X444616Y-172960D02*
Y-170421D01*
X447155D01*
Y-172960D01*
X444616D01*
X467468D02*
X457312D01*
X467468Y-162803D01*
Y-160264D01*
X464929Y-157725D01*
X459851D01*
X457312Y-160264D01*
X482704Y-157725D02*
X472547D01*
Y-165343D01*
X477625Y-162803D01*
X480164D01*
X482704Y-165343D01*
Y-170421D01*
X480164Y-172960D01*
X475086D01*
X472547Y-170421D01*
X495400Y-172960D02*
Y-157725D01*
X487782Y-165343D01*
X497939D01*
X503017Y-172960D02*
Y-162803D01*
X505556D01*
X508095Y-165343D01*
Y-172960D01*
Y-165343D01*
X510634Y-162803D01*
X513174Y-165343D01*
Y-172960D01*
X518252D02*
Y-162803D01*
X520791D01*
X523330Y-165343D01*
Y-172960D01*
Y-165343D01*
X525870Y-162803D01*
X528409Y-165343D01*
Y-172960D01*
X429381Y-190744D02*
X431920Y-188205D01*
X436998D01*
X439538Y-190744D01*
Y-200901D01*
X436998Y-203440D01*
X431920D01*
X429381Y-200901D01*
Y-190744D01*
X444616Y-203440D02*
Y-200901D01*
X447155D01*
Y-203440D01*
X444616D01*
X457312Y-190744D02*
X459851Y-188205D01*
X464929D01*
X467468Y-190744D01*
Y-200901D01*
X464929Y-203440D01*
X459851D01*
X457312Y-200901D01*
Y-190744D01*
X472547D02*
X475086Y-188205D01*
X480164D01*
X482704Y-190744D01*
Y-193283D01*
X480164Y-195823D01*
X477625D01*
X480164D01*
X482704Y-198362D01*
Y-200901D01*
X480164Y-203440D01*
X475086D01*
X472547Y-200901D01*
X497939Y-188205D02*
X492860Y-190744D01*
X487782Y-195823D01*
Y-200901D01*
X490321Y-203440D01*
X495400D01*
X497939Y-200901D01*
Y-198362D01*
X495400Y-195823D01*
X487782D01*
X503017Y-203440D02*
Y-193283D01*
X505556D01*
X508095Y-195823D01*
Y-203440D01*
Y-195823D01*
X510634Y-193283D01*
X513174Y-195823D01*
Y-203440D01*
X518252D02*
Y-193283D01*
X520791D01*
X523330Y-195823D01*
Y-203440D01*
Y-195823D01*
X525870Y-193283D01*
X528409Y-195823D01*
Y-203440D01*
X429381Y-221224D02*
X431920Y-218685D01*
X436998D01*
X439538Y-221224D01*
Y-231381D01*
X436998Y-233920D01*
X431920D01*
X429381Y-231381D01*
Y-221224D01*
X444616Y-233920D02*
Y-231381D01*
X447155D01*
Y-233920D01*
X444616D01*
X457312Y-221224D02*
X459851Y-218685D01*
X464929D01*
X467468Y-221224D01*
Y-231381D01*
X464929Y-233920D01*
X459851D01*
X457312Y-231381D01*
Y-221224D01*
X472547Y-233920D02*
X477625D01*
X475086D01*
Y-218685D01*
X472547Y-221224D01*
X485243D02*
X487782Y-218685D01*
X492860D01*
X495400Y-221224D01*
Y-231381D01*
X492860Y-233920D01*
X487782D01*
X485243Y-231381D01*
Y-221224D01*
X500478Y-233920D02*
Y-223763D01*
X503017D01*
X505556Y-226303D01*
Y-233920D01*
Y-226303D01*
X508095Y-223763D01*
X510634Y-226303D01*
Y-233920D01*
X515713D02*
Y-223763D01*
X518252D01*
X520791Y-226303D01*
Y-233920D01*
Y-226303D01*
X523330Y-223763D01*
X525870Y-226303D01*
Y-233920D01*
X429381Y-35805D02*
X439538D01*
X434459D01*
Y-51040D01*
X444616Y-35805D02*
Y-51040D01*
Y-43422D01*
X447155Y-40883D01*
X452233D01*
X454773Y-43422D01*
Y-51040D01*
X459851D02*
X464929D01*
X462390D01*
Y-40883D01*
X459851D01*
X482704D02*
X475086D01*
X472547Y-43422D01*
Y-48501D01*
X475086Y-51040D01*
X482704D01*
X487782D02*
Y-35805D01*
Y-45962D02*
X495400Y-40883D01*
X487782Y-45962D02*
X495400Y-51040D01*
X503017D02*
Y-40883D01*
X510634D01*
X513174Y-43422D01*
Y-51040D01*
X525870D02*
X520791D01*
X518252Y-48501D01*
Y-43422D01*
X520791Y-40883D01*
X525870D01*
X528409Y-43422D01*
Y-45962D01*
X518252D01*
X533487Y-51040D02*
X541105D01*
X543644Y-48501D01*
X541105Y-45962D01*
X536026D01*
X533487Y-43422D01*
X536026Y-40883D01*
X543644D01*
X548722Y-51040D02*
X556340D01*
X558879Y-48501D01*
X556340Y-45962D01*
X551261D01*
X548722Y-43422D01*
X551261Y-40883D01*
X558879D01*
X221157Y-99304D02*
X218617Y-96765D01*
X213539D01*
X211000Y-99304D01*
Y-101843D01*
X213539Y-104382D01*
X218617D01*
X221157Y-106922D01*
Y-109461D01*
X218617Y-112000D01*
X213539D01*
X211000Y-109461D01*
X228774Y-112000D02*
X233853D01*
X236392Y-109461D01*
Y-104382D01*
X233853Y-101843D01*
X228774D01*
X226235Y-104382D01*
Y-109461D01*
X228774Y-112000D01*
X241470D02*
X246549D01*
X244009D01*
Y-96765D01*
X241470D01*
X264323D02*
Y-112000D01*
X256705D01*
X254166Y-109461D01*
Y-104382D01*
X256705Y-101843D01*
X264323D01*
X277019Y-112000D02*
X271940D01*
X269401Y-109461D01*
Y-104382D01*
X271940Y-101843D01*
X277019D01*
X279558Y-104382D01*
Y-106922D01*
X269401D01*
X284636Y-101843D02*
Y-112000D01*
Y-106922D01*
X287175Y-104382D01*
X289715Y-101843D01*
X292254D01*
X315106Y-112000D02*
Y-96765D01*
X322724D01*
X325263Y-99304D01*
Y-104382D01*
X322724Y-106922D01*
X315106D01*
X320185D02*
X325263Y-112000D01*
X337959D02*
X332881D01*
X330341Y-109461D01*
Y-104382D01*
X332881Y-101843D01*
X337959D01*
X340498Y-104382D01*
Y-106922D01*
X330341D01*
X345576Y-112000D02*
X353194D01*
X355733Y-109461D01*
X353194Y-106922D01*
X348116D01*
X345576Y-104382D01*
X348116Y-101843D01*
X355733D01*
X360812Y-112000D02*
X365890D01*
X363351D01*
Y-101843D01*
X360812D01*
X373507Y-112000D02*
X381125D01*
X383664Y-109461D01*
X381125Y-106922D01*
X376047D01*
X373507Y-104382D01*
X376047Y-101843D01*
X383664D01*
X391282Y-99304D02*
Y-101843D01*
X388742D01*
X393821D01*
X391282D01*
Y-109461D01*
X393821Y-112000D01*
X221157Y-129784D02*
X218617Y-127245D01*
X213539D01*
X211000Y-129784D01*
Y-139941D01*
X213539Y-142480D01*
X218617D01*
X221157Y-139941D01*
X228774Y-142480D02*
X233853D01*
X236392Y-139941D01*
Y-134862D01*
X233853Y-132323D01*
X228774D01*
X226235Y-134862D01*
Y-139941D01*
X228774Y-142480D01*
X241470Y-147558D02*
Y-132323D01*
X249088D01*
X251627Y-134862D01*
Y-139941D01*
X249088Y-142480D01*
X241470D01*
X256705Y-147558D02*
Y-132323D01*
X264323D01*
X266862Y-134862D01*
Y-139941D01*
X264323Y-142480D01*
X256705D01*
X279558D02*
X274480D01*
X271940Y-139941D01*
Y-134862D01*
X274480Y-132323D01*
X279558D01*
X282097Y-134862D01*
Y-137402D01*
X271940D01*
X287175Y-132323D02*
Y-142480D01*
Y-137402D01*
X289715Y-134862D01*
X292254Y-132323D01*
X294793D01*
X221157Y-157725D02*
X211000D01*
Y-165343D01*
X216078D01*
X211000D01*
Y-172960D01*
X226235D02*
Y-157725D01*
X233853D01*
X236392Y-160264D01*
Y-165343D01*
X233853Y-167882D01*
X226235D01*
X231313D02*
X236392Y-172960D01*
X241470Y-165343D02*
X251627D01*
X264323Y-172960D02*
Y-157725D01*
X256705Y-165343D01*
X266862D01*
X221157Y-190744D02*
X218617Y-188205D01*
X213539D01*
X211000Y-190744D01*
Y-200901D01*
X213539Y-203440D01*
X218617D01*
X221157Y-200901D01*
X228774Y-203440D02*
X233853D01*
X236392Y-200901D01*
Y-195823D01*
X233853Y-193283D01*
X228774D01*
X226235Y-195823D01*
Y-200901D01*
X228774Y-203440D01*
X241470Y-208518D02*
Y-193283D01*
X249088D01*
X251627Y-195823D01*
Y-200901D01*
X249088Y-203440D01*
X241470D01*
X256705Y-208518D02*
Y-193283D01*
X264323D01*
X266862Y-195823D01*
Y-200901D01*
X264323Y-203440D01*
X256705D01*
X279558D02*
X274480D01*
X271940Y-200901D01*
Y-195823D01*
X274480Y-193283D01*
X279558D01*
X282097Y-195823D01*
Y-198362D01*
X271940D01*
X287175Y-193283D02*
Y-203440D01*
Y-198362D01*
X289715Y-195823D01*
X292254Y-193283D01*
X294793D01*
X221157Y-221224D02*
X218617Y-218685D01*
X213539D01*
X211000Y-221224D01*
Y-223763D01*
X213539Y-226303D01*
X218617D01*
X221157Y-228842D01*
Y-231381D01*
X218617Y-233920D01*
X213539D01*
X211000Y-231381D01*
X228774Y-233920D02*
X233853D01*
X236392Y-231381D01*
Y-226303D01*
X233853Y-223763D01*
X228774D01*
X226235Y-226303D01*
Y-231381D01*
X228774Y-233920D01*
X241470D02*
X246549D01*
X244009D01*
Y-218685D01*
X241470D01*
X264323D02*
Y-233920D01*
X256705D01*
X254166Y-231381D01*
Y-226303D01*
X256705Y-223763D01*
X264323D01*
X277019Y-233920D02*
X271940D01*
X269401Y-231381D01*
Y-226303D01*
X271940Y-223763D01*
X277019D01*
X279558Y-226303D01*
Y-228842D01*
X269401D01*
X284636Y-223763D02*
Y-233920D01*
Y-228842D01*
X287175Y-226303D01*
X289715Y-223763D01*
X292254D01*
X315106Y-233920D02*
Y-218685D01*
X322724D01*
X325263Y-221224D01*
Y-226303D01*
X322724Y-228842D01*
X315106D01*
X320185D02*
X325263Y-233920D01*
X337959D02*
X332881D01*
X330341Y-231381D01*
Y-226303D01*
X332881Y-223763D01*
X337959D01*
X340498Y-226303D01*
Y-228842D01*
X330341D01*
X345576Y-233920D02*
X353194D01*
X355733Y-231381D01*
X353194Y-228842D01*
X348116D01*
X345576Y-226303D01*
X348116Y-223763D01*
X355733D01*
X360812Y-233920D02*
X365890D01*
X363351D01*
Y-223763D01*
X360812D01*
X373507Y-233920D02*
X381125D01*
X383664Y-231381D01*
X381125Y-228842D01*
X376047D01*
X373507Y-226303D01*
X376047Y-223763D01*
X383664D01*
X391282Y-221224D02*
Y-223763D01*
X388742D01*
X393821D01*
X391282D01*
Y-231381D01*
X393821Y-233920D01*
X211000Y-51040D02*
Y-35805D01*
X216078Y-40883D01*
X221157Y-35805D01*
Y-51040D01*
X228774Y-40883D02*
X233853D01*
X236392Y-43422D01*
Y-51040D01*
X228774D01*
X226235Y-48501D01*
X228774Y-45962D01*
X236392D01*
X244009Y-38344D02*
Y-40883D01*
X241470D01*
X246549D01*
X244009D01*
Y-48501D01*
X246549Y-51040D01*
X261784D02*
X256705D01*
X254166Y-48501D01*
Y-43422D01*
X256705Y-40883D01*
X261784D01*
X264323Y-43422D01*
Y-45962D01*
X254166D01*
X269401Y-40883D02*
Y-51040D01*
Y-45962D01*
X271940Y-43422D01*
X274479Y-40883D01*
X277019D01*
X284636Y-51040D02*
X289715D01*
X287175D01*
Y-40883D01*
X284636D01*
X299871D02*
X304950D01*
X307489Y-43422D01*
Y-51040D01*
X299871D01*
X297332Y-48501D01*
X299871Y-45962D01*
X307489D01*
X312567Y-51040D02*
X317645D01*
X315106D01*
Y-35805D01*
X312567D01*
X-25155Y-66285D02*
X-14998D01*
X-20077D01*
Y-81520D01*
X-7381D02*
X-2303D01*
X237Y-78981D01*
Y-73903D01*
X-2303Y-71363D01*
X-7381D01*
X-9920Y-73903D01*
Y-78981D01*
X-7381Y-81520D01*
X5315Y-86598D02*
Y-71363D01*
X12933D01*
X15472Y-73903D01*
Y-78981D01*
X12933Y-81520D01*
X5315D01*
X43403Y-66285D02*
X38324D01*
X35785Y-68824D01*
Y-78981D01*
X38324Y-81520D01*
X43403D01*
X45942Y-78981D01*
Y-68824D01*
X43403Y-66285D01*
X51020Y-71363D02*
X56099Y-81520D01*
X61177Y-71363D01*
X73873Y-81520D02*
X68794D01*
X66255Y-78981D01*
Y-73903D01*
X68794Y-71363D01*
X73873D01*
X76412Y-73903D01*
Y-76442D01*
X66255D01*
X81490Y-71363D02*
Y-81520D01*
Y-76442D01*
X84030Y-73903D01*
X86569Y-71363D01*
X89108D01*
X96726Y-81520D02*
X101804D01*
X99265D01*
Y-66285D01*
X96726D01*
X111960Y-71363D02*
X117039D01*
X119578Y-73903D01*
Y-81520D01*
X111960D01*
X109421Y-78981D01*
X111960Y-76442D01*
X119578D01*
X124656Y-71363D02*
Y-78981D01*
X127196Y-81520D01*
X134813D01*
Y-84059D01*
X132274Y-86598D01*
X129735D01*
X134813Y-81520D02*
Y-71363D01*
X-25155Y-96765D02*
X-14998D01*
X-20077D01*
Y-112000D01*
X-7381D02*
X-2303D01*
X237Y-109461D01*
Y-104382D01*
X-2303Y-101843D01*
X-7381D01*
X-9920Y-104382D01*
Y-109461D01*
X-7381Y-112000D01*
X5315Y-117078D02*
Y-101843D01*
X12933D01*
X15472Y-104382D01*
Y-109461D01*
X12933Y-112000D01*
X5315D01*
X45942Y-99304D02*
X43403Y-96765D01*
X38324D01*
X35785Y-99304D01*
Y-101843D01*
X38324Y-104382D01*
X43403D01*
X45942Y-106922D01*
Y-109461D01*
X43403Y-112000D01*
X38324D01*
X35785Y-109461D01*
X53559Y-112000D02*
X58638D01*
X61177Y-109461D01*
Y-104382D01*
X58638Y-101843D01*
X53559D01*
X51020Y-104382D01*
Y-109461D01*
X53559Y-112000D01*
X66255D02*
X71334D01*
X68794D01*
Y-96765D01*
X66255D01*
X89108D02*
Y-112000D01*
X81490D01*
X78951Y-109461D01*
Y-104382D01*
X81490Y-101843D01*
X89108D01*
X101804Y-112000D02*
X96726D01*
X94186Y-109461D01*
Y-104382D01*
X96726Y-101843D01*
X101804D01*
X104343Y-104382D01*
Y-106922D01*
X94186D01*
X109421Y-101843D02*
Y-112000D01*
Y-106922D01*
X111960Y-104382D01*
X114500Y-101843D01*
X117039D01*
X-25155Y-127245D02*
X-14998D01*
X-20077D01*
Y-142480D01*
X-7381D02*
X-2303D01*
X237Y-139941D01*
Y-134862D01*
X-2303Y-132323D01*
X-7381D01*
X-9920Y-134862D01*
Y-139941D01*
X-7381Y-142480D01*
X5315Y-147558D02*
Y-132323D01*
X12933D01*
X15472Y-134862D01*
Y-139941D01*
X12933Y-142480D01*
X5315D01*
X35785Y-127245D02*
Y-142480D01*
X45942D01*
X53559Y-132323D02*
X58638D01*
X61177Y-134862D01*
Y-142480D01*
X53559D01*
X51020Y-139941D01*
X53559Y-137402D01*
X61177D01*
X66255Y-132323D02*
Y-139941D01*
X68794Y-142480D01*
X76412D01*
Y-145019D01*
X73873Y-147558D01*
X71334D01*
X76412Y-142480D02*
Y-132323D01*
X89108Y-142480D02*
X84030D01*
X81490Y-139941D01*
Y-134862D01*
X84030Y-132323D01*
X89108D01*
X91647Y-134862D01*
Y-137402D01*
X81490D01*
X96726Y-132323D02*
Y-142480D01*
Y-137402D01*
X99265Y-134862D01*
X101804Y-132323D01*
X104343D01*
X-14998Y-160264D02*
X-17538Y-157725D01*
X-22616D01*
X-25155Y-160264D01*
Y-170421D01*
X-22616Y-172960D01*
X-17538D01*
X-14998Y-170421D01*
X-7381Y-172960D02*
X-2303D01*
X237Y-170421D01*
Y-165343D01*
X-2303Y-162803D01*
X-7381D01*
X-9920Y-165343D01*
Y-170421D01*
X-7381Y-172960D01*
X5315Y-162803D02*
Y-172960D01*
Y-167882D01*
X7854Y-165343D01*
X10393Y-162803D01*
X12933D01*
X28168Y-172960D02*
X23089D01*
X20550Y-170421D01*
Y-165343D01*
X23089Y-162803D01*
X28168D01*
X30707Y-165343D01*
Y-167882D01*
X20550D01*
X-25155Y-188205D02*
Y-203440D01*
X-17538D01*
X-14998Y-200901D01*
Y-198362D01*
X-17538Y-195823D01*
X-25155D01*
X-17538D01*
X-14998Y-193283D01*
Y-190744D01*
X-17538Y-188205D01*
X-25155D01*
X-7381Y-203440D02*
X-2303D01*
X237Y-200901D01*
Y-195823D01*
X-2303Y-193283D01*
X-7381D01*
X-9920Y-195823D01*
Y-200901D01*
X-7381Y-203440D01*
X7854Y-190744D02*
Y-193283D01*
X5315D01*
X10393D01*
X7854D01*
Y-200901D01*
X10393Y-203440D01*
X20550Y-190744D02*
Y-193283D01*
X18011D01*
X23089D01*
X20550D01*
Y-200901D01*
X23089Y-203440D01*
X33246D02*
X38324D01*
X40863Y-200901D01*
Y-195823D01*
X38324Y-193283D01*
X33246D01*
X30707Y-195823D01*
Y-200901D01*
X33246Y-203440D01*
X45942D02*
Y-193283D01*
X48481D01*
X51020Y-195823D01*
Y-203440D01*
Y-195823D01*
X53559Y-193283D01*
X56099Y-195823D01*
Y-203440D01*
X76412Y-188205D02*
Y-203440D01*
X86569D01*
X94186Y-193283D02*
X99265D01*
X101804Y-195823D01*
Y-203440D01*
X94186D01*
X91647Y-200901D01*
X94186Y-198362D01*
X101804D01*
X106882Y-193283D02*
Y-200901D01*
X109421Y-203440D01*
X117039D01*
Y-205979D01*
X114500Y-208518D01*
X111960D01*
X117039Y-203440D02*
Y-193283D01*
X129735Y-203440D02*
X124656D01*
X122117Y-200901D01*
Y-195823D01*
X124656Y-193283D01*
X129735D01*
X132274Y-195823D01*
Y-198362D01*
X122117D01*
X137352Y-193283D02*
Y-203440D01*
Y-198362D01*
X139892Y-195823D01*
X142431Y-193283D01*
X144970D01*
X-25155Y-218685D02*
Y-233920D01*
X-17538D01*
X-14998Y-231381D01*
Y-228842D01*
X-17538Y-226303D01*
X-25155D01*
X-17538D01*
X-14998Y-223763D01*
Y-221224D01*
X-17538Y-218685D01*
X-25155D01*
X-7381Y-233920D02*
X-2303D01*
X237Y-231381D01*
Y-226303D01*
X-2303Y-223763D01*
X-7381D01*
X-9920Y-226303D01*
Y-231381D01*
X-7381Y-233920D01*
X7854Y-221224D02*
Y-223763D01*
X5315D01*
X10393D01*
X7854D01*
Y-231381D01*
X10393Y-233920D01*
X20550Y-221224D02*
Y-223763D01*
X18011D01*
X23089D01*
X20550D01*
Y-231381D01*
X23089Y-233920D01*
X33246D02*
X38324D01*
X40863Y-231381D01*
Y-226303D01*
X38324Y-223763D01*
X33246D01*
X30707Y-226303D01*
Y-231381D01*
X33246Y-233920D01*
X45942D02*
Y-223763D01*
X48481D01*
X51020Y-226303D01*
Y-233920D01*
Y-226303D01*
X53559Y-223763D01*
X56099Y-226303D01*
Y-233920D01*
X86569Y-221224D02*
X84030Y-218685D01*
X78951D01*
X76412Y-221224D01*
Y-223763D01*
X78951Y-226303D01*
X84030D01*
X86569Y-228842D01*
Y-231381D01*
X84030Y-233920D01*
X78951D01*
X76412Y-231381D01*
X94186Y-233920D02*
X99265D01*
X101804Y-231381D01*
Y-226303D01*
X99265Y-223763D01*
X94186D01*
X91647Y-226303D01*
Y-231381D01*
X94186Y-233920D01*
X106882D02*
X111960D01*
X109421D01*
Y-218685D01*
X106882D01*
X129735D02*
Y-233920D01*
X122117D01*
X119578Y-231381D01*
Y-226303D01*
X122117Y-223763D01*
X129735D01*
X142431Y-233920D02*
X137352D01*
X134813Y-231381D01*
Y-226303D01*
X137352Y-223763D01*
X142431D01*
X144970Y-226303D01*
Y-228842D01*
X134813D01*
X150048Y-223763D02*
Y-233920D01*
Y-228842D01*
X152587Y-226303D01*
X155126Y-223763D01*
X157666D01*
X-25155Y-249165D02*
Y-264400D01*
X-17538D01*
X-14998Y-261861D01*
Y-259322D01*
X-17538Y-256782D01*
X-25155D01*
X-17538D01*
X-14998Y-254243D01*
Y-251704D01*
X-17538Y-249165D01*
X-25155D01*
X-7381Y-264400D02*
X-2303D01*
X237Y-261861D01*
Y-256782D01*
X-2303Y-254243D01*
X-7381D01*
X-9920Y-256782D01*
Y-261861D01*
X-7381Y-264400D01*
X7854Y-251704D02*
Y-254243D01*
X5315D01*
X10393D01*
X7854D01*
Y-261861D01*
X10393Y-264400D01*
X20550Y-251704D02*
Y-254243D01*
X18011D01*
X23089D01*
X20550D01*
Y-261861D01*
X23089Y-264400D01*
X33246D02*
X38324D01*
X40863Y-261861D01*
Y-256782D01*
X38324Y-254243D01*
X33246D01*
X30707Y-256782D01*
Y-261861D01*
X33246Y-264400D01*
X45942D02*
Y-254243D01*
X48481D01*
X51020Y-256782D01*
Y-264400D01*
Y-256782D01*
X53559Y-254243D01*
X56099Y-256782D01*
Y-264400D01*
X84030Y-249165D02*
X78951D01*
X76412Y-251704D01*
Y-261861D01*
X78951Y-264400D01*
X84030D01*
X86569Y-261861D01*
Y-251704D01*
X84030Y-249165D01*
X91647Y-254243D02*
X96725Y-264400D01*
X101804Y-254243D01*
X114500Y-264400D02*
X109421D01*
X106882Y-261861D01*
Y-256782D01*
X109421Y-254243D01*
X114500D01*
X117039Y-256782D01*
Y-259322D01*
X106882D01*
X122117Y-254243D02*
Y-264400D01*
Y-259322D01*
X124656Y-256782D01*
X127196Y-254243D01*
X129735D01*
X137352Y-264400D02*
X142431D01*
X139892D01*
Y-249165D01*
X137352D01*
X152587Y-254243D02*
X157666D01*
X160205Y-256782D01*
Y-264400D01*
X152587D01*
X150048Y-261861D01*
X152587Y-259322D01*
X160205D01*
X165283Y-254243D02*
Y-261861D01*
X167822Y-264400D01*
X175440D01*
Y-266939D01*
X172901Y-269478D01*
X170362D01*
X175440Y-264400D02*
Y-254243D01*
X-25155Y-51040D02*
Y-35805D01*
X-14998Y-51040D01*
Y-35805D01*
X-7381Y-40883D02*
X-2303D01*
X237Y-43422D01*
Y-51040D01*
X-7381D01*
X-9920Y-48501D01*
X-7381Y-45962D01*
X237D01*
X5315Y-51040D02*
Y-40883D01*
X7854D01*
X10393Y-43422D01*
Y-51040D01*
Y-43422D01*
X12933Y-40883D01*
X15472Y-43422D01*
Y-51040D01*
X28168D02*
X23089D01*
X20550Y-48501D01*
Y-43422D01*
X23089Y-40883D01*
X28168D01*
X30707Y-43422D01*
Y-45962D01*
X20550D01*
X-129273Y-81520D02*
X-124195D01*
X-126734D01*
Y-66285D01*
X-129273Y-68824D01*
X-119116Y-112000D02*
X-129273D01*
X-119116Y-101843D01*
Y-99304D01*
X-121655Y-96765D01*
X-126734D01*
X-129273Y-99304D01*
Y-129784D02*
X-126734Y-127245D01*
X-121655D01*
X-119116Y-129784D01*
Y-132323D01*
X-121655Y-134862D01*
X-124195D01*
X-121655D01*
X-119116Y-137402D01*
Y-139941D01*
X-121655Y-142480D01*
X-126734D01*
X-129273Y-139941D01*
X-121655Y-172960D02*
Y-157725D01*
X-129273Y-165343D01*
X-119116D01*
Y-188205D02*
X-129273D01*
Y-195823D01*
X-124195Y-193283D01*
X-121655D01*
X-119116Y-195823D01*
Y-200901D01*
X-121655Y-203440D01*
X-126734D01*
X-129273Y-200901D01*
X-119116Y-218685D02*
X-124195Y-221224D01*
X-129273Y-226303D01*
Y-231381D01*
X-126734Y-233920D01*
X-121655D01*
X-119116Y-231381D01*
Y-228842D01*
X-121655Y-226303D01*
X-129273D01*
Y-249165D02*
X-119116D01*
Y-251704D01*
X-129273Y-261861D01*
Y-264400D01*
Y-35805D02*
Y-51040D01*
X-119116D01*
X-111499Y-40883D02*
X-106420D01*
X-103881Y-43422D01*
Y-51040D01*
X-111499D01*
X-114038Y-48501D01*
X-111499Y-45962D01*
X-103881D01*
X-98803Y-40883D02*
Y-48501D01*
X-96264Y-51040D01*
X-88646D01*
Y-53579D01*
X-91185Y-56118D01*
X-93724D01*
X-88646Y-51040D02*
Y-40883D01*
X-75950Y-51040D02*
X-81028D01*
X-83568Y-48501D01*
Y-43422D01*
X-81028Y-40883D01*
X-75950D01*
X-73411Y-43422D01*
Y-45962D01*
X-83568D01*
X-68333Y-40883D02*
Y-51040D01*
Y-45962D01*
X-65793Y-43422D01*
X-63254Y-40883D01*
X-60715D01*
D17*
X1008343Y-272020D02*
Y-28180D01*
X723944Y-89140D02*
X1008343D01*
X723944Y-119620D02*
X1008343D01*
X723944Y-150100D02*
X1008343D01*
X723944Y-180580D02*
X1008343D01*
X723944Y-211060D02*
X1008343D01*
X723944Y-241540D02*
X1008343D01*
X723944Y-272020D02*
X1008343D01*
X723944D02*
Y-28180D01*
X579199Y-89140D02*
X723944D01*
X579199Y-119620D02*
X723944D01*
X579199Y-150100D02*
X723944D01*
X579199Y-180580D02*
X723944D01*
X579199Y-211060D02*
X723944D01*
X579199Y-241540D02*
X723944D01*
X579199Y-272020D02*
X723944D01*
X579199D02*
Y-28180D01*
X414141Y-89140D02*
X579199D01*
X414141Y-119620D02*
X579199D01*
X414141Y-150100D02*
X579199D01*
X414141Y-180580D02*
X579199D01*
X414141Y-211060D02*
X579199D01*
X414141Y-241540D02*
X579199D01*
X414141Y-272020D02*
X579199D01*
X414141D02*
Y-28180D01*
X195760Y-89140D02*
X414141D01*
X195760Y-119620D02*
X414141D01*
X195760Y-150100D02*
X414141D01*
X195760Y-180580D02*
X414141D01*
X195760Y-211060D02*
X414141D01*
X195760Y-241540D02*
X414141D01*
X195760Y-272020D02*
X414141D01*
X195760D02*
Y-28180D01*
X-40395Y-89140D02*
X195760D01*
X-40395Y-119620D02*
X195760D01*
X-40395Y-150100D02*
X195760D01*
X-40395Y-180580D02*
X195760D01*
X-40395Y-211060D02*
X195760D01*
X-40395Y-241540D02*
X195760D01*
X-40395Y-272020D02*
X195760D01*
X-40395D02*
Y-28180D01*
X-144513Y-89140D02*
X-40395D01*
X-144513Y-119620D02*
X-40395D01*
X-144513Y-150100D02*
X-40395D01*
X-144513Y-180580D02*
X-40395D01*
X-144513Y-211060D02*
X-40395D01*
X-144513Y-241540D02*
X-40395D01*
X-144513Y-272020D02*
X-40395D01*
X-144513D02*
Y-28180D01*
X1008343D01*
X-144513Y-58660D02*
X1008343D01*
D18*
X723944Y-68740D02*
X734023Y-58660D01*
X723944Y-83980D02*
X749263Y-58660D01*
X734023Y-89140D02*
X764503Y-58660D01*
X749263Y-89140D02*
X779743Y-58660D01*
X764503Y-89140D02*
X794983Y-58660D01*
X779743Y-89140D02*
X810223Y-58660D01*
X794983Y-89140D02*
X825463Y-58660D01*
X810223Y-89140D02*
X840703Y-58660D01*
X825463Y-89140D02*
X855943Y-58660D01*
X840703Y-89140D02*
X871183Y-58660D01*
X855943Y-89140D02*
X886423Y-58660D01*
X871183Y-89140D02*
X901663Y-58660D01*
X886423Y-89140D02*
X916903Y-58660D01*
X901663Y-89140D02*
X932143Y-58660D01*
X916903Y-89140D02*
X947383Y-58660D01*
X932143Y-89140D02*
X962623Y-58660D01*
X947383Y-89140D02*
X977863Y-58660D01*
X962623Y-89140D02*
X993103Y-58660D01*
X977863Y-89140D02*
X1008343Y-58660D01*
X993103Y-89140D02*
X1008343Y-73900D01*
X723944Y-99220D02*
X734023Y-89140D01*
X723944Y-114459D02*
X749263Y-89140D01*
X734023Y-119620D02*
X764503Y-89140D01*
X749263Y-119620D02*
X779743Y-89140D01*
X764503Y-119620D02*
X794983Y-89140D01*
X779743Y-119620D02*
X810223Y-89140D01*
X794983Y-119620D02*
X825463Y-89140D01*
X810223Y-119620D02*
X840703Y-89140D01*
X825463Y-119620D02*
X855943Y-89140D01*
X840703Y-119620D02*
X871183Y-89140D01*
X855943Y-119620D02*
X886423Y-89140D01*
X871183Y-119620D02*
X901663Y-89140D01*
X886423Y-119620D02*
X916903Y-89140D01*
X901663Y-119620D02*
X932143Y-89140D01*
X916903Y-119620D02*
X947383Y-89140D01*
X932143Y-119620D02*
X962623Y-89140D01*
X947383Y-119620D02*
X977863Y-89140D01*
X962623Y-119620D02*
X993103Y-89140D01*
X977863Y-119620D02*
X1008343Y-89140D01*
X993103Y-119620D02*
X1008343Y-104380D01*
X723944Y-129699D02*
X734023Y-119620D01*
X723944Y-144939D02*
X749263Y-119620D01*
X734023Y-150100D02*
X764503Y-119620D01*
X749263Y-150100D02*
X779743Y-119620D01*
X764503Y-150100D02*
X794983Y-119620D01*
X779743Y-150100D02*
X810223Y-119620D01*
X794983Y-150100D02*
X825463Y-119620D01*
X810223Y-150100D02*
X840703Y-119620D01*
X825463Y-150100D02*
X855943Y-119620D01*
X840703Y-150100D02*
X871183Y-119620D01*
X855943Y-150100D02*
X886423Y-119620D01*
X871183Y-150100D02*
X901663Y-119620D01*
X886423Y-150100D02*
X916903Y-119620D01*
X901663Y-150100D02*
X932143Y-119620D01*
X916903Y-150100D02*
X947383Y-119620D01*
X932143Y-150100D02*
X962623Y-119620D01*
X947383Y-150100D02*
X977863Y-119620D01*
X962623Y-150100D02*
X993103Y-119620D01*
X977863Y-150100D02*
X1008343Y-119620D01*
X993103Y-150100D02*
X1008343Y-134860D01*
X723944Y-160180D02*
X734023Y-150100D01*
X723944Y-175420D02*
X749263Y-150100D01*
X734023Y-180580D02*
X764503Y-150100D01*
X749263Y-180580D02*
X779743Y-150100D01*
X764503Y-180580D02*
X794983Y-150100D01*
X779743Y-180580D02*
X810223Y-150100D01*
X794983Y-180580D02*
X825463Y-150100D01*
X810223Y-180580D02*
X840703Y-150100D01*
X825463Y-180580D02*
X855943Y-150100D01*
X840703Y-180580D02*
X871183Y-150100D01*
X855943Y-180580D02*
X886423Y-150100D01*
X871183Y-180580D02*
X901663Y-150100D01*
X886423Y-180580D02*
X916903Y-150100D01*
X901663Y-180580D02*
X932143Y-150100D01*
X916903Y-180580D02*
X947383Y-150100D01*
X932143Y-180580D02*
X962623Y-150100D01*
X947383Y-180580D02*
X977863Y-150100D01*
X962623Y-180580D02*
X993103Y-150100D01*
X977863Y-180580D02*
X1008343Y-150100D01*
X993103Y-180580D02*
X1008343Y-165340D01*
X723944Y-190660D02*
X734023Y-180580D01*
X723944Y-205900D02*
X749263Y-180580D01*
X734023Y-211060D02*
X764503Y-180580D01*
X749263Y-211060D02*
X779743Y-180580D01*
X764503Y-211060D02*
X794983Y-180580D01*
X779743Y-211060D02*
X810223Y-180580D01*
X794983Y-211060D02*
X825463Y-180580D01*
X810223Y-211060D02*
X840703Y-180580D01*
X825463Y-211060D02*
X855943Y-180580D01*
X840703Y-211060D02*
X871183Y-180580D01*
X855943Y-211060D02*
X886423Y-180580D01*
X871183Y-211060D02*
X901663Y-180580D01*
X886423Y-211060D02*
X916903Y-180580D01*
X901663Y-211060D02*
X932143Y-180580D01*
X916903Y-211060D02*
X947383Y-180580D01*
X932143Y-211060D02*
X962623Y-180580D01*
X947383Y-211060D02*
X977863Y-180580D01*
X962623Y-211060D02*
X993103Y-180580D01*
X977863Y-211060D02*
X1008343Y-180580D01*
X993103Y-211060D02*
X1008343Y-195820D01*
X723944Y-221140D02*
X734023Y-211060D01*
X723944Y-236380D02*
X749263Y-211060D01*
X734023Y-241540D02*
X764503Y-211060D01*
X749263Y-241540D02*
X779743Y-211060D01*
X764503Y-241540D02*
X794983Y-211060D01*
X779743Y-241540D02*
X810223Y-211060D01*
X794983Y-241540D02*
X825463Y-211060D01*
X810223Y-241540D02*
X840703Y-211060D01*
X825463Y-241540D02*
X855943Y-211060D01*
X840703Y-241540D02*
X871183Y-211060D01*
X855943Y-241540D02*
X886423Y-211060D01*
X871183Y-241540D02*
X901663Y-211060D01*
X886423Y-241540D02*
X916903Y-211060D01*
X901663Y-241540D02*
X932143Y-211060D01*
X916903Y-241540D02*
X947383Y-211060D01*
X932143Y-241540D02*
X962623Y-211060D01*
X947383Y-241540D02*
X977863Y-211060D01*
X962623Y-241540D02*
X993103Y-211060D01*
X977863Y-241540D02*
X1008343Y-211060D01*
X993103Y-241540D02*
X1008343Y-226300D01*
X723944Y-251619D02*
X734023Y-241540D01*
X723944Y-266859D02*
X749263Y-241540D01*
X734023Y-272020D02*
X764503Y-241540D01*
X749263Y-272020D02*
X779743Y-241540D01*
X764503Y-272020D02*
X794983Y-241540D01*
X779743Y-272020D02*
X810223Y-241540D01*
X794983Y-272020D02*
X825463Y-241540D01*
X810223Y-272020D02*
X840703Y-241540D01*
X825463Y-272020D02*
X855943Y-241540D01*
X840703Y-272020D02*
X871183Y-241540D01*
X855943Y-272020D02*
X886423Y-241540D01*
X871183Y-272020D02*
X901663Y-241540D01*
X886423Y-272020D02*
X916903Y-241540D01*
X901663Y-272020D02*
X932143Y-241540D01*
X916903Y-272020D02*
X947383Y-241540D01*
X932143Y-272020D02*
X962623Y-241540D01*
X947383Y-272020D02*
X977863Y-241540D01*
X962623Y-272020D02*
X993103Y-241540D01*
X977863Y-272020D02*
X1008343Y-241540D01*
X993103Y-272020D02*
X1008343Y-256780D01*
M02*
