G04 Layer_Physical_Order=2*
G04 Layer_Color=16711680*
%FSLAX44Y44*%
%MOMM*%
G71*
G01*
G75*
%ADD10C,1.6764*%
D10*
X432700Y709000D02*
D03*
X407300D02*
D03*
X381900D02*
D03*
X458100D02*
D03*
X88700Y627700D02*
D03*
Y602300D02*
D03*
X114100Y627700D02*
D03*
Y602300D02*
D03*
X855300Y208400D02*
D03*
X880700D02*
D03*
X855300Y233800D02*
D03*
X880700D02*
D03*
X855300Y259200D02*
D03*
X880700D02*
D03*
X855300Y284600D02*
D03*
X880700D02*
D03*
X855300Y310000D02*
D03*
X880700D02*
D03*
X855300Y335400D02*
D03*
X880700D02*
D03*
X855300Y360800D02*
D03*
X880700D02*
D03*
X855300Y386200D02*
D03*
X880700D02*
D03*
X855300Y411600D02*
D03*
X880700D02*
D03*
X27300Y566300D02*
D03*
X52700D02*
D03*
X27300Y540900D02*
D03*
X52700D02*
D03*
X27300Y515500D02*
D03*
X52700D02*
D03*
X27300Y490100D02*
D03*
X52700D02*
D03*
X27300Y464700D02*
D03*
X52700D02*
D03*
X27300Y439300D02*
D03*
X52700D02*
D03*
X27300Y413900D02*
D03*
X52700D02*
D03*
X27300Y388500D02*
D03*
X52700D02*
D03*
X27300Y363100D02*
D03*
X52700D02*
D03*
X27300Y337700D02*
D03*
X52700D02*
D03*
X27300Y312300D02*
D03*
X52700D02*
D03*
X27300Y286900D02*
D03*
X52700D02*
D03*
X27300Y261500D02*
D03*
X52700D02*
D03*
X27300Y236100D02*
D03*
X52700D02*
D03*
X27300Y210700D02*
D03*
X52700D02*
D03*
X27300Y185300D02*
D03*
X52700D02*
D03*
X27300Y159900D02*
D03*
X52700D02*
D03*
X27300Y134500D02*
D03*
X52700D02*
D03*
X27300Y109100D02*
D03*
X52700D02*
D03*
X27300Y83700D02*
D03*
X52700D02*
D03*
M02*
