M48
;Layer_Color=9474304
;FILE_FORMAT=4:4
METRIC,LZ
;TYPE=PLATED
T1F00S00C0.8999
;TYPE=NON_PLATED
T2F00S00C2.7500
%
T01
X008553Y002084
X008807
Y002338
X008553
Y002592
X008807
Y002846
X008553
Y0031
X008807
Y003354
X008553
X000527Y003377
X000273
Y003123
X000527
Y002869
X000273
Y002615
X000527
Y002361
X000273
Y002107
X000527
Y001853
X000273
Y001599
X000527
Y001345
X000273
Y001091
X000527
Y000837
X000273
Y003631
Y003885
Y004139
Y004393
Y004647
Y004901
Y005155
Y005409
Y005663
X000527
Y005409
Y005155
Y004901
Y004647
Y004393
Y004139
Y003885
Y003631
X000887Y006023
Y006277
X001141
Y006023
X003819Y00709
X004073
X004327
X004581
X008553Y004116
Y003862
Y003608
X008807
Y003862
Y004116
T02
X0053Y00035
Y00615
M30
